<mxfile host="drawio-plugin" modified="2023-01-15T19:08:28.250Z" agent="5.0 (Windows NT 6.2; Win64; x64) AppleWebKit/537.36 (KHTML, like Gecko) Chrome/97.0.4692.45 Safari/537.36" etag="stWhd9EN3_bGRAsLGqaJ" version="20.5.3" type="embed"><diagram id="23iRSUPoRavnBvh4doch" name="Page-1"><mxGraphModel dx="2762" dy="1998" grid="1" gridSize="10" guides="1" tooltips="1" connect="1" arrows="1" fold="1" page="1" pageScale="1" pageWidth="827" pageHeight="1169" math="0" shadow="0"><root><mxCell id="0"/><mxCell id="1" parent="0"/><mxCell id="2" value="saints" style="shape=table;startSize=30;container=1;collapsible=1;childLayout=tableLayout;fixedRows=1;rowLines=0;fontStyle=1;align=center;resizeLast=1;rounded=0;sketch=0;fillColor=#e51400;strokeColor=#B20000;fontColor=#ffffff;swimlaneFillColor=#FFFF66;" parent="1" vertex="1"><mxGeometry x="-40" y="-40" width="150" height="180" as="geometry"/></mxCell><mxCell id="3" value="" style="shape=tableRow;horizontal=0;startSize=0;swimlaneHead=0;swimlaneBody=0;fillColor=none;collapsible=0;dropTarget=0;points=[[0,0.5],[1,0.5]];portConstraint=eastwest;top=0;left=0;right=0;bottom=1;rounded=0;sketch=0;" parent="2" vertex="1"><mxGeometry y="30" width="150" height="30" as="geometry"/></mxCell><mxCell id="4" value="PK" style="shape=partialRectangle;connectable=0;fillColor=none;top=0;left=0;bottom=0;right=0;fontStyle=1;overflow=hidden;rounded=0;sketch=0;" parent="3" vertex="1"><mxGeometry width="30" height="30" as="geometry"><mxRectangle width="30" height="30" as="alternateBounds"/></mxGeometry></mxCell><mxCell id="5" value="id" style="shape=partialRectangle;connectable=0;fillColor=none;top=0;left=0;bottom=0;right=0;align=left;spacingLeft=6;fontStyle=5;overflow=hidden;rounded=0;sketch=0;" parent="3" vertex="1"><mxGeometry x="30" width="120" height="30" as="geometry"><mxRectangle width="120" height="30" as="alternateBounds"/></mxGeometry></mxCell><mxCell id="6" value="" style="shape=tableRow;horizontal=0;startSize=0;swimlaneHead=0;swimlaneBody=0;fillColor=none;collapsible=0;dropTarget=0;points=[[0,0.5],[1,0.5]];portConstraint=eastwest;top=0;left=0;right=0;bottom=0;rounded=0;sketch=0;" parent="2" vertex="1"><mxGeometry y="60" width="150" height="30" as="geometry"/></mxCell><mxCell id="7" value="FK" style="shape=partialRectangle;connectable=0;fillColor=none;top=0;left=0;bottom=0;right=0;editable=1;overflow=hidden;fontStyle=1;rounded=0;sketch=0;" parent="6" vertex="1"><mxGeometry width="30" height="30" as="geometry"><mxRectangle width="30" height="30" as="alternateBounds"/></mxGeometry></mxCell><mxCell id="8" value="dignity_id" style="shape=partialRectangle;connectable=0;fillColor=none;top=0;left=0;bottom=0;right=0;align=left;spacingLeft=6;overflow=hidden;fontStyle=1;rounded=0;sketch=0;" parent="6" vertex="1"><mxGeometry x="30" width="120" height="30" as="geometry"><mxRectangle width="120" height="30" as="alternateBounds"/></mxGeometry></mxCell><mxCell id="9" value="" style="shape=tableRow;horizontal=0;startSize=0;swimlaneHead=0;swimlaneBody=0;fillColor=none;collapsible=0;dropTarget=0;points=[[0,0.5],[1,0.5]];portConstraint=eastwest;top=0;left=0;right=0;bottom=0;fontStyle=1;rounded=0;sketch=0;" parent="2" vertex="1"><mxGeometry y="90" width="150" height="30" as="geometry"/></mxCell><mxCell id="10" value="FK" style="shape=partialRectangle;connectable=0;fillColor=none;top=0;left=0;bottom=0;right=0;editable=1;overflow=hidden;fontStyle=1;rounded=0;sketch=0;" parent="9" vertex="1"><mxGeometry width="30" height="30" as="geometry"><mxRectangle width="30" height="30" as="alternateBounds"/></mxGeometry></mxCell><mxCell id="11" value="face_sanctity_id" style="shape=partialRectangle;connectable=0;fillColor=none;top=0;left=0;bottom=0;right=0;align=left;spacingLeft=6;overflow=hidden;fontStyle=1;rounded=0;sketch=0;" parent="9" vertex="1"><mxGeometry x="30" width="120" height="30" as="geometry"><mxRectangle width="120" height="30" as="alternateBounds"/></mxGeometry></mxCell><mxCell id="12" value="" style="shape=tableRow;horizontal=0;startSize=0;swimlaneHead=0;swimlaneBody=0;fillColor=none;collapsible=0;dropTarget=0;points=[[0,0.5],[1,0.5]];portConstraint=eastwest;top=0;left=0;right=0;bottom=0;rounded=0;sketch=0;" parent="2" vertex="1"><mxGeometry y="120" width="150" height="30" as="geometry"/></mxCell><mxCell id="13" value="" style="shape=partialRectangle;connectable=0;fillColor=none;top=0;left=0;bottom=0;right=0;editable=1;overflow=hidden;rounded=0;sketch=0;" parent="12" vertex="1"><mxGeometry width="30" height="30" as="geometry"><mxRectangle width="30" height="30" as="alternateBounds"/></mxGeometry></mxCell><mxCell id="14" value="name" style="shape=partialRectangle;connectable=0;fillColor=none;top=0;left=0;bottom=0;right=0;align=left;spacingLeft=6;overflow=hidden;rounded=0;sketch=0;" parent="12" vertex="1"><mxGeometry x="30" width="120" height="30" as="geometry"><mxRectangle width="120" height="30" as="alternateBounds"/></mxGeometry></mxCell><mxCell id="392" value="" style="shape=tableRow;horizontal=0;startSize=0;swimlaneHead=0;swimlaneBody=0;fillColor=none;collapsible=0;dropTarget=0;points=[[0,0.5],[1,0.5]];portConstraint=eastwest;top=0;left=0;right=0;bottom=0;rounded=0;sketch=0;" parent="2" vertex="1"><mxGeometry y="150" width="150" height="30" as="geometry"/></mxCell><mxCell id="393" value="" style="shape=partialRectangle;connectable=0;fillColor=none;top=0;left=0;bottom=0;right=0;editable=1;overflow=hidden;rounded=0;sketch=0;" parent="392" vertex="1"><mxGeometry width="30" height="30" as="geometry"><mxRectangle width="30" height="30" as="alternateBounds"/></mxGeometry></mxCell><mxCell id="394" value="slug" style="shape=partialRectangle;connectable=0;fillColor=none;top=0;left=0;bottom=0;right=0;align=left;spacingLeft=6;overflow=hidden;fontStyle=1;rounded=0;sketch=0;" parent="392" vertex="1"><mxGeometry x="30" width="120" height="30" as="geometry"><mxRectangle width="120" height="30" as="alternateBounds"/></mxGeometry></mxCell><mxCell id="16" value="dignities" style="shape=table;startSize=30;container=1;collapsible=1;childLayout=tableLayout;fixedRows=1;rowLines=0;fontStyle=1;align=center;resizeLast=1;rounded=0;sketch=0;fillColor=#d5e8d4;strokeColor=#82b366;" parent="1" vertex="1"><mxGeometry x="-260" y="-10" width="80" height="90" as="geometry"/></mxCell><mxCell id="17" value="" style="shape=tableRow;horizontal=0;startSize=0;swimlaneHead=0;swimlaneBody=0;fillColor=none;collapsible=0;dropTarget=0;points=[[0,0.5],[1,0.5]];portConstraint=eastwest;top=0;left=0;right=0;bottom=1;rounded=0;sketch=0;" parent="16" vertex="1"><mxGeometry y="30" width="80" height="30" as="geometry"/></mxCell><mxCell id="18" value="PK" style="shape=partialRectangle;connectable=0;fillColor=none;top=0;left=0;bottom=0;right=0;fontStyle=1;overflow=hidden;rounded=0;sketch=0;" parent="17" vertex="1"><mxGeometry width="30" height="30" as="geometry"><mxRectangle width="30" height="30" as="alternateBounds"/></mxGeometry></mxCell><mxCell id="19" value="id" style="shape=partialRectangle;connectable=0;fillColor=none;top=0;left=0;bottom=0;right=0;align=left;spacingLeft=6;fontStyle=5;overflow=hidden;rounded=0;sketch=0;" parent="17" vertex="1"><mxGeometry x="30" width="50" height="30" as="geometry"><mxRectangle width="50" height="30" as="alternateBounds"/></mxGeometry></mxCell><mxCell id="23" value="" style="shape=tableRow;horizontal=0;startSize=0;swimlaneHead=0;swimlaneBody=0;fillColor=none;collapsible=0;dropTarget=0;points=[[0,0.5],[1,0.5]];portConstraint=eastwest;top=0;left=0;right=0;bottom=0;rounded=0;sketch=0;" parent="16" vertex="1"><mxGeometry y="60" width="80" height="30" as="geometry"/></mxCell><mxCell id="24" value="" style="shape=partialRectangle;connectable=0;fillColor=none;top=0;left=0;bottom=0;right=0;editable=1;overflow=hidden;rounded=0;sketch=0;" parent="23" vertex="1"><mxGeometry width="30" height="30" as="geometry"><mxRectangle width="30" height="30" as="alternateBounds"/></mxGeometry></mxCell><mxCell id="25" value="title" style="shape=partialRectangle;connectable=0;fillColor=none;top=0;left=0;bottom=0;right=0;align=left;spacingLeft=6;overflow=hidden;fontSize=12;rounded=0;sketch=0;" parent="23" vertex="1"><mxGeometry x="30" width="50" height="30" as="geometry"><mxRectangle width="50" height="30" as="alternateBounds"/></mxGeometry></mxCell><mxCell id="1462" style="edgeStyle=orthogonalEdgeStyle;rounded=0;orthogonalLoop=1;jettySize=auto;html=1;exitX=1;exitY=0.5;exitDx=0;exitDy=0;endArrow=none;endFill=0;" parent="16" source="17" target="17" edge="1"><mxGeometry relative="1" as="geometry"/></mxCell><mxCell id="51" style="edgeStyle=orthogonalEdgeStyle;rounded=0;orthogonalLoop=1;jettySize=auto;html=1;entryX=0;entryY=0.5;entryDx=0;entryDy=0;fontSize=12;endArrow=ERmany;endFill=0;sketch=0;" parent="1" source="36" target="9" edge="1"><mxGeometry relative="1" as="geometry"/></mxCell><mxCell id="36" value="faces_sanctity" style="shape=table;startSize=30;container=1;collapsible=1;childLayout=tableLayout;fixedRows=1;rowLines=0;fontStyle=1;align=center;resizeLast=1;fontSize=12;rounded=0;sketch=0;fillColor=#d5e8d4;strokeColor=#82b366;" parent="1" vertex="1"><mxGeometry x="-230" y="90" width="112" height="90" as="geometry"/></mxCell><mxCell id="37" value="" style="shape=tableRow;horizontal=0;startSize=0;swimlaneHead=0;swimlaneBody=0;fillColor=none;collapsible=0;dropTarget=0;points=[[0,0.5],[1,0.5]];portConstraint=eastwest;top=0;left=0;right=0;bottom=1;fontSize=12;rounded=0;sketch=0;" parent="36" vertex="1"><mxGeometry y="30" width="112" height="30" as="geometry"/></mxCell><mxCell id="38" value="PK" style="shape=partialRectangle;connectable=0;fillColor=none;top=0;left=0;bottom=0;right=0;fontStyle=1;overflow=hidden;fontSize=12;rounded=0;sketch=0;" parent="37" vertex="1"><mxGeometry width="30" height="30" as="geometry"><mxRectangle width="30" height="30" as="alternateBounds"/></mxGeometry></mxCell><mxCell id="39" value="id" style="shape=partialRectangle;connectable=0;fillColor=none;top=0;left=0;bottom=0;right=0;align=left;spacingLeft=6;fontStyle=5;overflow=hidden;fontSize=12;rounded=0;sketch=0;" parent="37" vertex="1"><mxGeometry x="30" width="82" height="30" as="geometry"><mxRectangle width="82" height="30" as="alternateBounds"/></mxGeometry></mxCell><mxCell id="46" value="" style="shape=tableRow;horizontal=0;startSize=0;swimlaneHead=0;swimlaneBody=0;fillColor=none;collapsible=0;dropTarget=0;points=[[0,0.5],[1,0.5]];portConstraint=eastwest;top=0;left=0;right=0;bottom=0;fontSize=12;rounded=0;sketch=0;" parent="36" vertex="1"><mxGeometry y="60" width="112" height="30" as="geometry"/></mxCell><mxCell id="47" value="" style="shape=partialRectangle;connectable=0;fillColor=none;top=0;left=0;bottom=0;right=0;editable=1;overflow=hidden;fontSize=12;rounded=0;sketch=0;" parent="46" vertex="1"><mxGeometry width="30" height="30" as="geometry"><mxRectangle width="30" height="30" as="alternateBounds"/></mxGeometry></mxCell><mxCell id="48" value="title" style="shape=partialRectangle;connectable=0;fillColor=none;top=0;left=0;bottom=0;right=0;align=left;spacingLeft=6;overflow=hidden;fontSize=12;rounded=0;sketch=0;" parent="46" vertex="1"><mxGeometry x="30" width="82" height="30" as="geometry"><mxRectangle width="82" height="30" as="alternateBounds"/></mxGeometry></mxCell><mxCell id="52" style="edgeStyle=orthogonalEdgeStyle;rounded=0;orthogonalLoop=1;jettySize=auto;html=1;exitX=1;exitY=0.5;exitDx=0;exitDy=0;fontSize=12;endArrow=ERmany;endFill=0;sketch=0;shadow=0;startArrow=none;startFill=0;" parent="1" source="17" target="6" edge="1"><mxGeometry relative="1" as="geometry"/></mxCell><mxCell id="53" value="years" style="shape=table;startSize=30;container=1;collapsible=1;childLayout=tableLayout;fixedRows=1;rowLines=0;fontStyle=1;align=center;resizeLast=1;fontSize=12;rounded=0;sketch=0;fillColor=#dae8fc;strokeColor=#6c8ebf;" parent="1" vertex="1"><mxGeometry x="-458" y="-380" width="90" height="120" as="geometry"/></mxCell><mxCell id="54" value="" style="shape=tableRow;horizontal=0;startSize=0;swimlaneHead=0;swimlaneBody=0;fillColor=none;collapsible=0;dropTarget=0;points=[[0,0.5],[1,0.5]];portConstraint=eastwest;top=0;left=0;right=0;bottom=1;fontSize=12;rounded=0;sketch=0;" parent="53" vertex="1"><mxGeometry y="30" width="90" height="30" as="geometry"/></mxCell><mxCell id="55" value="PK" style="shape=partialRectangle;connectable=0;fillColor=none;top=0;left=0;bottom=0;right=0;fontStyle=1;overflow=hidden;fontSize=12;rounded=0;sketch=0;" parent="54" vertex="1"><mxGeometry width="30" height="30" as="geometry"><mxRectangle width="30" height="30" as="alternateBounds"/></mxGeometry></mxCell><mxCell id="56" value="id" style="shape=partialRectangle;connectable=0;fillColor=none;top=0;left=0;bottom=0;right=0;align=left;spacingLeft=6;fontStyle=5;overflow=hidden;fontSize=12;rounded=0;sketch=0;" parent="54" vertex="1"><mxGeometry x="30" width="60" height="30" as="geometry"><mxRectangle width="60" height="30" as="alternateBounds"/></mxGeometry></mxCell><mxCell id="57" value="" style="shape=tableRow;horizontal=0;startSize=0;swimlaneHead=0;swimlaneBody=0;fillColor=none;collapsible=0;dropTarget=0;points=[[0,0.5],[1,0.5]];portConstraint=eastwest;top=0;left=0;right=0;bottom=0;fontSize=12;rounded=0;sketch=0;" parent="53" vertex="1"><mxGeometry y="60" width="90" height="30" as="geometry"/></mxCell><mxCell id="58" value="" style="shape=partialRectangle;connectable=0;fillColor=none;top=0;left=0;bottom=0;right=0;editable=1;overflow=hidden;fontSize=12;rounded=0;sketch=0;" parent="57" vertex="1"><mxGeometry width="30" height="30" as="geometry"><mxRectangle width="30" height="30" as="alternateBounds"/></mxGeometry></mxCell><mxCell id="59" value="title" style="shape=partialRectangle;connectable=0;fillColor=none;top=0;left=0;bottom=0;right=0;align=left;spacingLeft=6;overflow=hidden;fontSize=12;rounded=0;sketch=0;fontStyle=1" parent="57" vertex="1"><mxGeometry x="30" width="60" height="30" as="geometry"><mxRectangle width="60" height="30" as="alternateBounds"/></mxGeometry></mxCell><mxCell id="60" value="" style="shape=tableRow;horizontal=0;startSize=0;swimlaneHead=0;swimlaneBody=0;fillColor=none;collapsible=0;dropTarget=0;points=[[0,0.5],[1,0.5]];portConstraint=eastwest;top=0;left=0;right=0;bottom=0;fontSize=12;rounded=0;sketch=0;" parent="53" vertex="1"><mxGeometry y="90" width="90" height="30" as="geometry"/></mxCell><mxCell id="61" value="" style="shape=partialRectangle;connectable=0;fillColor=none;top=0;left=0;bottom=0;right=0;editable=1;overflow=hidden;fontSize=12;rounded=0;sketch=0;" parent="60" vertex="1"><mxGeometry width="30" height="30" as="geometry"><mxRectangle width="30" height="30" as="alternateBounds"/></mxGeometry></mxCell><mxCell id="62" value="_year" style="shape=partialRectangle;connectable=0;fillColor=none;top=0;left=0;bottom=0;right=0;align=left;spacingLeft=6;overflow=hidden;fontSize=12;rounded=0;sketch=0;fontStyle=1" parent="60" vertex="1"><mxGeometry x="30" width="60" height="30" as="geometry"><mxRectangle width="60" height="30" as="alternateBounds"/></mxGeometry></mxCell><mxCell id="66" value="days" style="shape=table;startSize=30;container=1;collapsible=1;childLayout=tableLayout;fixedRows=1;rowLines=0;fontStyle=1;align=center;resizeLast=1;fontSize=12;rounded=0;sketch=0;fillColor=#e1d5e7;strokeColor=default;swimlaneLine=1;strokeWidth=1;perimeterSpacing=12;" parent="1" vertex="1"><mxGeometry x="1030" y="-260" width="120" height="120" as="geometry"/></mxCell><mxCell id="67" value="" style="shape=tableRow;horizontal=0;startSize=0;swimlaneHead=0;swimlaneBody=0;fillColor=none;collapsible=0;dropTarget=0;points=[[0,0.5],[1,0.5]];portConstraint=eastwest;top=0;left=0;right=0;bottom=1;fontSize=12;rounded=0;sketch=0;" parent="66" vertex="1"><mxGeometry y="30" width="120" height="30" as="geometry"/></mxCell><mxCell id="68" value="PK" style="shape=partialRectangle;connectable=0;fillColor=none;top=0;left=0;bottom=0;right=0;fontStyle=1;overflow=hidden;fontSize=12;rounded=0;sketch=0;" parent="67" vertex="1"><mxGeometry width="30" height="30" as="geometry"><mxRectangle width="30" height="30" as="alternateBounds"/></mxGeometry></mxCell><mxCell id="69" value="id" style="shape=partialRectangle;connectable=0;fillColor=none;top=0;left=0;bottom=0;right=0;align=left;spacingLeft=6;fontStyle=5;overflow=hidden;fontSize=12;rounded=0;sketch=0;" parent="67" vertex="1"><mxGeometry x="30" width="90" height="30" as="geometry"><mxRectangle width="90" height="30" as="alternateBounds"/></mxGeometry></mxCell><mxCell id="70" value="" style="shape=tableRow;horizontal=0;startSize=0;swimlaneHead=0;swimlaneBody=0;fillColor=none;collapsible=0;dropTarget=0;points=[[0,0.5],[1,0.5]];portConstraint=eastwest;top=0;left=0;right=0;bottom=0;fontSize=12;rounded=0;sketch=0;" parent="66" vertex="1"><mxGeometry y="60" width="120" height="30" as="geometry"/></mxCell><mxCell id="71" value="" style="shape=partialRectangle;connectable=0;fillColor=none;top=0;left=0;bottom=0;right=0;editable=1;overflow=hidden;fontSize=12;rounded=0;sketch=0;" parent="70" vertex="1"><mxGeometry width="30" height="30" as="geometry"><mxRectangle width="30" height="30" as="alternateBounds"/></mxGeometry></mxCell><mxCell id="72" value="month" style="shape=partialRectangle;connectable=0;fillColor=none;top=0;left=0;bottom=0;right=0;align=left;spacingLeft=6;overflow=hidden;fontSize=12;rounded=0;sketch=0;fontStyle=1" parent="70" vertex="1"><mxGeometry x="30" width="90" height="30" as="geometry"><mxRectangle width="90" height="30" as="alternateBounds"/></mxGeometry></mxCell><mxCell id="593" value="" style="shape=tableRow;horizontal=0;startSize=0;swimlaneHead=0;swimlaneBody=0;fillColor=none;collapsible=0;dropTarget=0;points=[[0,0.5],[1,0.5]];portConstraint=eastwest;top=0;left=0;right=0;bottom=0;fontSize=12;rounded=0;sketch=0;" parent="66" vertex="1"><mxGeometry y="90" width="120" height="30" as="geometry"/></mxCell><mxCell id="594" value="" style="shape=partialRectangle;connectable=0;fillColor=none;top=0;left=0;bottom=0;right=0;editable=1;overflow=hidden;fontSize=12;rounded=0;sketch=0;" parent="593" vertex="1"><mxGeometry width="30" height="30" as="geometry"><mxRectangle width="30" height="30" as="alternateBounds"/></mxGeometry></mxCell><mxCell id="595" value="day" style="shape=partialRectangle;connectable=0;fillColor=none;top=0;left=0;bottom=0;right=0;align=left;spacingLeft=6;overflow=hidden;fontSize=12;rounded=0;sketch=0;fontStyle=1" parent="593" vertex="1"><mxGeometry x="30" width="90" height="30" as="geometry"><mxRectangle width="90" height="30" as="alternateBounds"/></mxGeometry></mxCell><mxCell id="79" value="remembrance_days" style="shape=table;startSize=30;container=1;collapsible=1;childLayout=tableLayout;fixedRows=1;rowLines=0;fontStyle=1;align=center;resizeLast=1;fontSize=12;rounded=0;sketch=1;swimlaneLine=1;" parent="1" vertex="1"><mxGeometry x="-330" y="-830" width="160" height="180" as="geometry"/></mxCell><mxCell id="80" value="" style="shape=tableRow;horizontal=0;startSize=0;swimlaneHead=0;swimlaneBody=0;fillColor=none;collapsible=0;dropTarget=0;points=[[0,0.5],[1,0.5]];portConstraint=eastwest;top=0;left=0;right=0;bottom=0;fontSize=12;rounded=0;sketch=0;" parent="79" vertex="1"><mxGeometry y="30" width="160" height="30" as="geometry"/></mxCell><mxCell id="81" value="PK,FK1" style="shape=partialRectangle;connectable=0;fillColor=none;top=0;left=0;bottom=0;right=0;fontStyle=1;overflow=hidden;fontSize=12;rounded=0;sketch=0;" parent="80" vertex="1"><mxGeometry width="60" height="30" as="geometry"><mxRectangle width="60" height="30" as="alternateBounds"/></mxGeometry></mxCell><mxCell id="82" value="saint_id" style="shape=partialRectangle;connectable=0;fillColor=none;top=0;left=0;bottom=0;right=0;align=left;spacingLeft=6;fontStyle=5;overflow=hidden;fontSize=12;rounded=0;sketch=0;" parent="80" vertex="1"><mxGeometry x="60" width="100" height="30" as="geometry"><mxRectangle width="100" height="30" as="alternateBounds"/></mxGeometry></mxCell><mxCell id="83" value="" style="shape=tableRow;horizontal=0;startSize=0;swimlaneHead=0;swimlaneBody=0;fillColor=none;collapsible=0;dropTarget=0;points=[[0,0.5],[1,0.5]];portConstraint=eastwest;top=0;left=0;right=0;bottom=1;fontSize=12;rounded=0;sketch=0;" parent="79" vertex="1"><mxGeometry y="60" width="160" height="30" as="geometry"/></mxCell><mxCell id="84" value="PK,FK2" style="shape=partialRectangle;connectable=0;fillColor=none;top=0;left=0;bottom=0;right=0;fontStyle=1;overflow=hidden;fontSize=12;rounded=0;sketch=0;" parent="83" vertex="1"><mxGeometry width="60" height="30" as="geometry"><mxRectangle width="60" height="30" as="alternateBounds"/></mxGeometry></mxCell><mxCell id="85" value="date_id" style="shape=partialRectangle;connectable=0;fillColor=none;top=0;left=0;bottom=0;right=0;align=left;spacingLeft=6;fontStyle=5;overflow=hidden;fontSize=12;rounded=0;sketch=0;" parent="83" vertex="1"><mxGeometry x="60" width="100" height="30" as="geometry"><mxRectangle width="100" height="30" as="alternateBounds"/></mxGeometry></mxCell><mxCell id="89" value="" style="shape=tableRow;horizontal=0;startSize=0;swimlaneHead=0;swimlaneBody=0;fillColor=none;collapsible=0;dropTarget=0;points=[[0,0.5],[1,0.5]];portConstraint=eastwest;top=0;left=0;right=0;bottom=0;fontSize=12;rounded=0;sketch=0;" parent="79" vertex="1"><mxGeometry y="90" width="160" height="30" as="geometry"/></mxCell><mxCell id="90" value="FK" style="shape=partialRectangle;connectable=0;fillColor=none;top=0;left=0;bottom=0;right=0;editable=1;overflow=hidden;fontSize=12;fontStyle=1;rounded=0;sketch=0;" parent="89" vertex="1"><mxGeometry width="60" height="30" as="geometry"><mxRectangle width="60" height="30" as="alternateBounds"/></mxGeometry></mxCell><mxCell id="91" value="year_id" style="shape=partialRectangle;connectable=0;fillColor=none;top=0;left=0;bottom=0;right=0;align=left;spacingLeft=6;overflow=hidden;fontSize=12;fontStyle=1;rounded=0;sketch=0;" parent="89" vertex="1"><mxGeometry x="60" width="100" height="30" as="geometry"><mxRectangle width="100" height="30" as="alternateBounds"/></mxGeometry></mxCell><mxCell id="488" value="" style="shape=tableRow;horizontal=0;startSize=0;swimlaneHead=0;swimlaneBody=0;fillColor=none;collapsible=0;dropTarget=0;points=[[0,0.5],[1,0.5]];portConstraint=eastwest;top=0;left=0;right=0;bottom=0;fontSize=12;rounded=0;sketch=0;" parent="79" vertex="1"><mxGeometry y="120" width="160" height="30" as="geometry"/></mxCell><mxCell id="489" value="FK" style="shape=partialRectangle;connectable=0;fillColor=none;top=0;left=0;bottom=0;right=0;editable=1;overflow=hidden;fontSize=12;rounded=0;sketch=0;fontStyle=1" parent="488" vertex="1"><mxGeometry width="60" height="30" as="geometry"><mxRectangle width="60" height="30" as="alternateBounds"/></mxGeometry></mxCell><mxCell id="490" value="typicon_id" style="shape=partialRectangle;connectable=0;fillColor=none;top=0;left=0;bottom=0;right=0;align=left;spacingLeft=6;overflow=hidden;fontSize=12;rounded=0;sketch=0;fontStyle=1" parent="488" vertex="1"><mxGeometry x="60" width="100" height="30" as="geometry"><mxRectangle width="100" height="30" as="alternateBounds"/></mxGeometry></mxCell><mxCell id="86" value="" style="shape=tableRow;horizontal=0;startSize=0;swimlaneHead=0;swimlaneBody=0;fillColor=none;collapsible=0;dropTarget=0;points=[[0,0.5],[1,0.5]];portConstraint=eastwest;top=0;left=0;right=0;bottom=0;fontSize=12;rounded=0;sketch=0;" parent="79" vertex="1"><mxGeometry y="150" width="160" height="30" as="geometry"/></mxCell><mxCell id="87" value="" style="shape=partialRectangle;connectable=0;fillColor=none;top=0;left=0;bottom=0;right=0;editable=1;overflow=hidden;fontSize=12;rounded=0;sketch=0;" parent="86" vertex="1"><mxGeometry width="60" height="30" as="geometry"><mxRectangle width="60" height="30" as="alternateBounds"/></mxGeometry></mxCell><mxCell id="88" value="title" style="shape=partialRectangle;connectable=0;fillColor=none;top=0;left=0;bottom=0;right=0;align=left;spacingLeft=6;overflow=hidden;fontSize=12;rounded=0;sketch=0;" parent="86" vertex="1"><mxGeometry x="60" width="100" height="30" as="geometry"><mxRectangle width="100" height="30" as="alternateBounds"/></mxGeometry></mxCell><mxCell id="109" value="cycles" style="shape=table;startSize=30;container=1;collapsible=1;childLayout=tableLayout;fixedRows=1;rowLines=0;fontStyle=1;align=center;resizeLast=1;fontSize=12;rounded=0;sketch=0;fillColor=#e1d5e7;strokeColor=#9673a6;" parent="1" vertex="1"><mxGeometry x="1570" y="30" width="129.99999999999955" height="120" as="geometry"/></mxCell><mxCell id="110" value="" style="shape=tableRow;horizontal=0;startSize=0;swimlaneHead=0;swimlaneBody=0;fillColor=none;collapsible=0;dropTarget=0;points=[[0,0.5],[1,0.5]];portConstraint=eastwest;top=0;left=0;right=0;bottom=1;fontSize=12;rounded=0;sketch=0;" parent="109" vertex="1"><mxGeometry y="30" width="129.99999999999955" height="30" as="geometry"/></mxCell><mxCell id="111" value="PK" style="shape=partialRectangle;connectable=0;fillColor=none;top=0;left=0;bottom=0;right=0;fontStyle=1;overflow=hidden;fontSize=12;rounded=0;sketch=0;" parent="110" vertex="1"><mxGeometry width="30" height="30" as="geometry"><mxRectangle width="30" height="30" as="alternateBounds"/></mxGeometry></mxCell><mxCell id="112" value="id" style="shape=partialRectangle;connectable=0;fillColor=none;top=0;left=0;bottom=0;right=0;align=left;spacingLeft=6;fontStyle=5;overflow=hidden;fontSize=12;rounded=0;sketch=0;" parent="110" vertex="1"><mxGeometry x="30" width="99.99999999999955" height="30" as="geometry"><mxRectangle width="99.99999999999955" height="30" as="alternateBounds"/></mxGeometry></mxCell><mxCell id="113" value="" style="shape=tableRow;horizontal=0;startSize=0;swimlaneHead=0;swimlaneBody=0;fillColor=none;collapsible=0;dropTarget=0;points=[[0,0.5],[1,0.5]];portConstraint=eastwest;top=0;left=0;right=0;bottom=0;fontSize=12;rounded=0;sketch=0;" parent="109" vertex="1"><mxGeometry y="60" width="129.99999999999955" height="30" as="geometry"/></mxCell><mxCell id="114" value="" style="shape=partialRectangle;connectable=0;fillColor=none;top=0;left=0;bottom=0;right=0;editable=1;overflow=hidden;fontSize=12;rounded=0;sketch=0;" parent="113" vertex="1"><mxGeometry width="30" height="30" as="geometry"><mxRectangle width="30" height="30" as="alternateBounds"/></mxGeometry></mxCell><mxCell id="115" value="num" style="shape=partialRectangle;connectable=0;fillColor=none;top=0;left=0;bottom=0;right=0;align=left;spacingLeft=6;overflow=hidden;fontSize=12;fontStyle=1;rounded=0;sketch=0;" parent="113" vertex="1"><mxGeometry x="30" width="99.99999999999955" height="30" as="geometry"><mxRectangle width="99.99999999999955" height="30" as="alternateBounds"/></mxGeometry></mxCell><mxCell id="116" value="" style="shape=tableRow;horizontal=0;startSize=0;swimlaneHead=0;swimlaneBody=0;fillColor=none;collapsible=0;dropTarget=0;points=[[0,0.5],[1,0.5]];portConstraint=eastwest;top=0;left=0;right=0;bottom=0;fontSize=12;rounded=0;sketch=0;" parent="109" vertex="1"><mxGeometry y="90" width="129.99999999999955" height="30" as="geometry"/></mxCell><mxCell id="117" value="" style="shape=partialRectangle;connectable=0;fillColor=none;top=0;left=0;bottom=0;right=0;editable=1;overflow=hidden;fontSize=12;rounded=0;sketch=0;" parent="116" vertex="1"><mxGeometry width="30" height="30" as="geometry"><mxRectangle width="30" height="30" as="alternateBounds"/></mxGeometry></mxCell><mxCell id="118" value="title" style="shape=partialRectangle;connectable=0;fillColor=none;top=0;left=0;bottom=0;right=0;align=left;spacingLeft=6;overflow=hidden;fontSize=12;rounded=0;sketch=0;" parent="116" vertex="1"><mxGeometry x="30" width="99.99999999999955" height="30" as="geometry"><mxRectangle width="99.99999999999955" height="30" as="alternateBounds"/></mxGeometry></mxCell><mxCell id="122" value="weeks" style="shape=table;startSize=30;container=1;collapsible=1;childLayout=tableLayout;fixedRows=1;rowLines=0;fontStyle=1;align=center;resizeLast=1;fontSize=12;rounded=0;sketch=0;fillColor=#e1d5e7;strokeColor=#9673a6;" parent="1" vertex="1"><mxGeometry x="1280" width="140" height="210" as="geometry"/></mxCell><mxCell id="123" value="" style="shape=tableRow;horizontal=0;startSize=0;swimlaneHead=0;swimlaneBody=0;fillColor=none;collapsible=0;dropTarget=0;points=[[0,0.5],[1,0.5]];portConstraint=eastwest;top=0;left=0;right=0;bottom=1;fontSize=12;rounded=0;sketch=0;" parent="122" vertex="1"><mxGeometry y="30" width="140" height="30" as="geometry"/></mxCell><mxCell id="124" value="PK" style="shape=partialRectangle;connectable=0;fillColor=none;top=0;left=0;bottom=0;right=0;fontStyle=1;overflow=hidden;fontSize=12;rounded=0;sketch=0;" parent="123" vertex="1"><mxGeometry width="30" height="30" as="geometry"><mxRectangle width="30" height="30" as="alternateBounds"/></mxGeometry></mxCell><mxCell id="125" value="id" style="shape=partialRectangle;connectable=0;fillColor=none;top=0;left=0;bottom=0;right=0;align=left;spacingLeft=6;fontStyle=5;overflow=hidden;fontSize=12;rounded=0;sketch=0;" parent="123" vertex="1"><mxGeometry x="30" width="110" height="30" as="geometry"><mxRectangle width="110" height="30" as="alternateBounds"/></mxGeometry></mxCell><mxCell id="204" value="" style="shape=tableRow;horizontal=0;startSize=0;swimlaneHead=0;swimlaneBody=0;fillColor=none;collapsible=0;dropTarget=0;points=[[0,0.5],[1,0.5]];portConstraint=eastwest;top=0;left=0;right=0;bottom=0;fontSize=12;rounded=0;sketch=0;" parent="122" vertex="1"><mxGeometry y="60" width="140" height="30" as="geometry"/></mxCell><mxCell id="205" value="FK" style="shape=partialRectangle;connectable=0;fillColor=none;top=0;left=0;bottom=0;right=0;editable=1;overflow=hidden;fontSize=12;fontStyle=1;rounded=0;sketch=0;" parent="204" vertex="1"><mxGeometry width="30" height="30" as="geometry"><mxRectangle width="30" height="30" as="alternateBounds"/></mxGeometry></mxCell><mxCell id="206" value="cycle_id" style="shape=partialRectangle;connectable=0;fillColor=none;top=0;left=0;bottom=0;right=0;align=left;spacingLeft=6;overflow=hidden;fontSize=12;fontStyle=1;rounded=0;sketch=0;" parent="204" vertex="1"><mxGeometry x="30" width="110" height="30" as="geometry"><mxRectangle width="110" height="30" as="alternateBounds"/></mxGeometry></mxCell><mxCell id="126" value="" style="shape=tableRow;horizontal=0;startSize=0;swimlaneHead=0;swimlaneBody=0;fillColor=none;collapsible=0;dropTarget=0;points=[[0,0.5],[1,0.5]];portConstraint=eastwest;top=0;left=0;right=0;bottom=0;fontSize=12;rounded=0;sketch=0;" parent="122" vertex="1"><mxGeometry y="90" width="140" height="30" as="geometry"/></mxCell><mxCell id="127" value="" style="shape=partialRectangle;connectable=0;fillColor=none;top=0;left=0;bottom=0;right=0;editable=1;overflow=hidden;fontSize=12;rounded=0;sketch=0;" parent="126" vertex="1"><mxGeometry width="30" height="30" as="geometry"><mxRectangle width="30" height="30" as="alternateBounds"/></mxGeometry></mxCell><mxCell id="128" value="num" style="shape=partialRectangle;connectable=0;fillColor=none;top=0;left=0;bottom=0;right=0;align=left;spacingLeft=6;overflow=hidden;fontSize=12;rounded=0;sketch=0;" parent="126" vertex="1"><mxGeometry x="30" width="110" height="30" as="geometry"><mxRectangle width="110" height="30" as="alternateBounds"/></mxGeometry></mxCell><mxCell id="129" value="" style="shape=tableRow;horizontal=0;startSize=0;swimlaneHead=0;swimlaneBody=0;fillColor=none;collapsible=0;dropTarget=0;points=[[0,0.5],[1,0.5]];portConstraint=eastwest;top=0;left=0;right=0;bottom=0;fontSize=12;rounded=0;sketch=0;" parent="122" vertex="1"><mxGeometry y="120" width="140" height="30" as="geometry"/></mxCell><mxCell id="130" value="" style="shape=partialRectangle;connectable=0;fillColor=none;top=0;left=0;bottom=0;right=0;editable=1;overflow=hidden;fontSize=12;rounded=0;sketch=0;" parent="129" vertex="1"><mxGeometry width="30" height="30" as="geometry"><mxRectangle width="30" height="30" as="alternateBounds"/></mxGeometry></mxCell><mxCell id="131" value="title" style="shape=partialRectangle;connectable=0;fillColor=none;top=0;left=0;bottom=0;right=0;align=left;spacingLeft=6;overflow=hidden;fontSize=12;rounded=0;sketch=0;" parent="129" vertex="1"><mxGeometry x="30" width="110" height="30" as="geometry"><mxRectangle width="110" height="30" as="alternateBounds"/></mxGeometry></mxCell><mxCell id="132" value="" style="shape=tableRow;horizontal=0;startSize=0;swimlaneHead=0;swimlaneBody=0;fillColor=none;collapsible=0;dropTarget=0;points=[[0,0.5],[1,0.5]];portConstraint=eastwest;top=0;left=0;right=0;bottom=0;fontSize=12;rounded=0;sketch=0;" parent="122" vertex="1"><mxGeometry y="150" width="140" height="30" as="geometry"/></mxCell><mxCell id="133" value="" style="shape=partialRectangle;connectable=0;fillColor=none;top=0;left=0;bottom=0;right=0;editable=1;overflow=hidden;fontSize=12;rounded=0;sketch=0;" parent="132" vertex="1"><mxGeometry width="30" height="30" as="geometry"><mxRectangle width="30" height="30" as="alternateBounds"/></mxGeometry></mxCell><mxCell id="134" value="sunday_title" style="shape=partialRectangle;connectable=0;fillColor=none;top=0;left=0;bottom=0;right=0;align=left;spacingLeft=6;overflow=hidden;fontSize=12;rounded=0;sketch=0;" parent="132" vertex="1"><mxGeometry x="30" width="110" height="30" as="geometry"><mxRectangle width="110" height="30" as="alternateBounds"/></mxGeometry></mxCell><mxCell id="201" value="" style="shape=tableRow;horizontal=0;startSize=0;swimlaneHead=0;swimlaneBody=0;fillColor=none;collapsible=0;dropTarget=0;points=[[0,0.5],[1,0.5]];portConstraint=eastwest;top=0;left=0;right=0;bottom=0;fontSize=12;align=center;fontStyle=0;rounded=0;sketch=0;" parent="122" vertex="1"><mxGeometry y="180" width="140" height="30" as="geometry"/></mxCell><mxCell id="202" value="" style="shape=partialRectangle;connectable=0;fillColor=none;top=0;left=0;bottom=0;right=0;editable=1;overflow=hidden;fontSize=12;rounded=0;sketch=0;" parent="201" vertex="1"><mxGeometry width="30" height="30" as="geometry"><mxRectangle width="30" height="30" as="alternateBounds"/></mxGeometry></mxCell><mxCell id="203" value="sunday_num" style="shape=partialRectangle;connectable=0;fillColor=none;top=0;left=0;bottom=0;right=0;align=left;spacingLeft=6;overflow=hidden;fontSize=12;fontStyle=1;rounded=0;sketch=0;" parent="201" vertex="1"><mxGeometry x="30" width="110" height="30" as="geometry"><mxRectangle width="110" height="30" as="alternateBounds"/></mxGeometry></mxCell><mxCell id="135" value="movable_days" style="shape=table;startSize=30;container=1;collapsible=1;childLayout=tableLayout;fixedRows=1;rowLines=0;fontStyle=1;align=center;resizeLast=1;fontSize=12;rounded=0;sketch=0;fillColor=#e1d5e7;strokeColor=#9673a6;" parent="1" vertex="1"><mxGeometry x="1030" y="-110" width="120" height="180" as="geometry"/></mxCell><mxCell id="136" value="" style="shape=tableRow;horizontal=0;startSize=0;swimlaneHead=0;swimlaneBody=0;fillColor=none;collapsible=0;dropTarget=0;points=[[0,0.5],[1,0.5]];portConstraint=eastwest;top=0;left=0;right=0;bottom=1;fontSize=12;rounded=0;sketch=0;" parent="135" vertex="1"><mxGeometry y="30" width="120" height="30" as="geometry"/></mxCell><mxCell id="137" value="PK" style="shape=partialRectangle;connectable=0;fillColor=none;top=0;left=0;bottom=0;right=0;fontStyle=1;overflow=hidden;fontSize=12;rounded=0;sketch=0;" parent="136" vertex="1"><mxGeometry width="30" height="30" as="geometry"><mxRectangle width="30" height="30" as="alternateBounds"/></mxGeometry></mxCell><mxCell id="138" value="id" style="shape=partialRectangle;connectable=0;fillColor=none;top=0;left=0;bottom=0;right=0;align=left;spacingLeft=6;fontStyle=5;overflow=hidden;fontSize=12;rounded=0;sketch=0;" parent="136" vertex="1"><mxGeometry x="30" width="90" height="30" as="geometry"><mxRectangle width="90" height="30" as="alternateBounds"/></mxGeometry></mxCell><mxCell id="139" value="" style="shape=tableRow;horizontal=0;startSize=0;swimlaneHead=0;swimlaneBody=0;fillColor=none;collapsible=0;dropTarget=0;points=[[0,0.5],[1,0.5]];portConstraint=eastwest;top=0;left=0;right=0;bottom=0;fontSize=12;rounded=0;sketch=0;" parent="135" vertex="1"><mxGeometry y="60" width="120" height="30" as="geometry"/></mxCell><mxCell id="140" value="FK" style="shape=partialRectangle;connectable=0;fillColor=none;top=0;left=0;bottom=0;right=0;editable=1;overflow=hidden;fontSize=12;fontStyle=1;rounded=0;sketch=0;" parent="139" vertex="1"><mxGeometry width="30" height="30" as="geometry"><mxRectangle width="30" height="30" as="alternateBounds"/></mxGeometry></mxCell><mxCell id="141" value="week_id" style="shape=partialRectangle;connectable=0;top=0;left=0;bottom=0;right=0;align=left;spacingLeft=6;overflow=hidden;fontSize=12;fontStyle=1;rounded=0;sketch=0;fillColor=none;" parent="139" vertex="1"><mxGeometry x="30" width="90" height="30" as="geometry"><mxRectangle width="90" height="30" as="alternateBounds"/></mxGeometry></mxCell><mxCell id="142" value="" style="shape=tableRow;horizontal=0;startSize=0;swimlaneHead=0;swimlaneBody=0;fillColor=none;collapsible=0;dropTarget=0;points=[[0,0.5],[1,0.5]];portConstraint=eastwest;top=0;left=0;right=0;bottom=0;fontSize=12;rounded=0;sketch=0;" parent="135" vertex="1"><mxGeometry y="90" width="120" height="30" as="geometry"/></mxCell><mxCell id="143" value="" style="shape=partialRectangle;connectable=0;fillColor=none;top=0;left=0;bottom=0;right=0;editable=1;overflow=hidden;fontSize=12;rounded=0;sketch=0;" parent="142" vertex="1"><mxGeometry width="30" height="30" as="geometry"><mxRectangle width="30" height="30" as="alternateBounds"/></mxGeometry></mxCell><mxCell id="144" value="abbr" style="shape=partialRectangle;connectable=0;fillColor=none;top=0;left=0;bottom=0;right=0;align=left;spacingLeft=6;overflow=hidden;fontSize=12;fontStyle=1;rounded=0;sketch=0;" parent="142" vertex="1"><mxGeometry x="30" width="90" height="30" as="geometry"><mxRectangle width="90" height="30" as="alternateBounds"/></mxGeometry></mxCell><mxCell id="145" value="" style="shape=tableRow;horizontal=0;startSize=0;swimlaneHead=0;swimlaneBody=0;fillColor=none;collapsible=0;dropTarget=0;points=[[0,0.5],[1,0.5]];portConstraint=eastwest;top=0;left=0;right=0;bottom=0;fontSize=12;rounded=0;sketch=0;" parent="135" vertex="1"><mxGeometry y="120" width="120" height="30" as="geometry"/></mxCell><mxCell id="146" value="" style="shape=partialRectangle;connectable=0;fillColor=none;top=0;left=0;bottom=0;right=0;editable=1;overflow=hidden;fontSize=12;rounded=0;sketch=0;" parent="145" vertex="1"><mxGeometry width="30" height="30" as="geometry"><mxRectangle width="30" height="30" as="alternateBounds"/></mxGeometry></mxCell><mxCell id="147" value="abbr_ru" style="shape=partialRectangle;connectable=0;fillColor=none;top=0;left=0;bottom=0;right=0;align=left;spacingLeft=6;overflow=hidden;fontSize=12;rounded=0;sketch=0;" parent="145" vertex="1"><mxGeometry x="30" width="90" height="30" as="geometry"><mxRectangle width="90" height="30" as="alternateBounds"/></mxGeometry></mxCell><mxCell id="210" value="" style="shape=tableRow;horizontal=0;startSize=0;swimlaneHead=0;swimlaneBody=0;fillColor=none;collapsible=0;dropTarget=0;points=[[0,0.5],[1,0.5]];portConstraint=eastwest;top=0;left=0;right=0;bottom=0;fontSize=12;rounded=0;sketch=0;" parent="135" vertex="1"><mxGeometry y="150" width="120" height="30" as="geometry"/></mxCell><mxCell id="211" value="" style="shape=partialRectangle;connectable=0;fillColor=none;top=0;left=0;bottom=0;right=0;editable=1;overflow=hidden;fontSize=12;rounded=0;sketch=0;" parent="210" vertex="1"><mxGeometry width="30" height="30" as="geometry"><mxRectangle width="30" height="30" as="alternateBounds"/></mxGeometry></mxCell><mxCell id="212" value="title" style="shape=partialRectangle;connectable=0;fillColor=none;top=0;left=0;bottom=0;right=0;align=left;spacingLeft=6;overflow=hidden;fontSize=12;rounded=0;sketch=0;" parent="210" vertex="1"><mxGeometry x="30" width="90" height="30" as="geometry"><mxRectangle width="90" height="30" as="alternateBounds"/></mxGeometry></mxCell><mxCell id="148" value="divine_services" style="shape=table;startSize=30;container=1;collapsible=1;childLayout=tableLayout;fixedRows=1;rowLines=0;fontStyle=1;align=center;resizeLast=1;fontSize=12;rounded=0;sketch=0;fillColor=#d5e8d4;strokeColor=#82b366;" parent="1" vertex="1"><mxGeometry x="1200" y="400" width="140" height="90" as="geometry"/></mxCell><mxCell id="149" value="" style="shape=tableRow;horizontal=0;startSize=0;swimlaneHead=0;swimlaneBody=0;fillColor=none;collapsible=0;dropTarget=0;points=[[0,0.5],[1,0.5]];portConstraint=eastwest;top=0;left=0;right=0;bottom=1;fontSize=12;rounded=0;sketch=0;" parent="148" vertex="1"><mxGeometry y="30" width="140" height="30" as="geometry"/></mxCell><mxCell id="150" value="PK" style="shape=partialRectangle;connectable=0;fillColor=none;top=0;left=0;bottom=0;right=0;fontStyle=1;overflow=hidden;fontSize=12;rounded=0;sketch=0;" parent="149" vertex="1"><mxGeometry width="30" height="30" as="geometry"><mxRectangle width="30" height="30" as="alternateBounds"/></mxGeometry></mxCell><mxCell id="151" value="id" style="shape=partialRectangle;connectable=0;top=0;left=0;bottom=0;right=0;align=left;spacingLeft=6;fontStyle=5;overflow=hidden;fontSize=12;rounded=0;sketch=0;" parent="149" vertex="1"><mxGeometry x="30" width="110" height="30" as="geometry"><mxRectangle width="110" height="30" as="alternateBounds"/></mxGeometry></mxCell><mxCell id="152" value="" style="shape=tableRow;horizontal=0;startSize=0;swimlaneHead=0;swimlaneBody=0;fillColor=none;collapsible=0;dropTarget=0;points=[[0,0.5],[1,0.5]];portConstraint=eastwest;top=0;left=0;right=0;bottom=0;fontSize=12;rounded=0;sketch=0;" parent="148" vertex="1"><mxGeometry y="60" width="140" height="30" as="geometry"/></mxCell><mxCell id="153" value="" style="shape=partialRectangle;connectable=0;fillColor=none;top=0;left=0;bottom=0;right=0;editable=1;overflow=hidden;fontSize=12;rounded=0;sketch=0;" parent="152" vertex="1"><mxGeometry width="30" height="30" as="geometry"><mxRectangle width="30" height="30" as="alternateBounds"/></mxGeometry></mxCell><mxCell id="154" value="title" style="shape=partialRectangle;connectable=0;fillColor=none;top=0;left=0;bottom=0;right=0;align=left;spacingLeft=6;overflow=hidden;fontSize=12;rounded=0;sketch=0;" parent="152" vertex="1"><mxGeometry x="30" width="110" height="30" as="geometry"><mxRectangle width="110" height="30" as="alternateBounds"/></mxGeometry></mxCell><mxCell id="174" value="movable_dates" style="shape=table;startSize=30;container=1;collapsible=1;childLayout=tableLayout;fixedRows=1;rowLines=0;fontStyle=1;align=center;resizeLast=1;fontSize=12;rounded=0;sketch=0;fillColor=#e1d5e7;strokeColor=#9673a6;" parent="1" vertex="1"><mxGeometry x="840" y="370" width="150" height="120" as="geometry"/></mxCell><mxCell id="175" value="" style="shape=tableRow;horizontal=0;startSize=0;swimlaneHead=0;swimlaneBody=0;fillColor=none;collapsible=0;dropTarget=0;points=[[0,0.5],[1,0.5]];portConstraint=eastwest;top=0;left=0;right=0;bottom=1;fontSize=12;rounded=0;sketch=0;" parent="174" vertex="1"><mxGeometry y="30" width="150" height="30" as="geometry"/></mxCell><mxCell id="176" value="PK" style="shape=partialRectangle;connectable=0;fillColor=none;top=0;left=0;bottom=0;right=0;fontStyle=1;overflow=hidden;fontSize=12;rounded=0;sketch=0;" parent="175" vertex="1"><mxGeometry width="30" height="30" as="geometry"><mxRectangle width="30" height="30" as="alternateBounds"/></mxGeometry></mxCell><mxCell id="177" value="id" style="shape=partialRectangle;connectable=0;fillColor=none;top=0;left=0;bottom=0;right=0;align=left;spacingLeft=6;fontStyle=5;overflow=hidden;fontSize=12;rounded=0;sketch=0;" parent="175" vertex="1"><mxGeometry x="30" width="120" height="30" as="geometry"><mxRectangle width="120" height="30" as="alternateBounds"/></mxGeometry></mxCell><mxCell id="178" value="" style="shape=tableRow;horizontal=0;startSize=0;swimlaneHead=0;swimlaneBody=0;fillColor=none;collapsible=0;dropTarget=0;points=[[0,0.5],[1,0.5]];portConstraint=eastwest;top=0;left=0;right=0;bottom=0;fontSize=12;rounded=0;sketch=0;" parent="174" vertex="1"><mxGeometry y="60" width="150" height="30" as="geometry"/></mxCell><mxCell id="179" value="FK" style="shape=partialRectangle;connectable=0;fillColor=none;top=0;left=0;bottom=0;right=0;editable=1;overflow=hidden;fontSize=12;fontStyle=1;rounded=0;sketch=0;" parent="178" vertex="1"><mxGeometry width="30" height="30" as="geometry"><mxRectangle width="30" height="30" as="alternateBounds"/></mxGeometry></mxCell><mxCell id="180" value="day_id" style="shape=partialRectangle;connectable=0;fillColor=none;top=0;left=0;bottom=0;right=0;align=left;spacingLeft=6;overflow=hidden;fontSize=12;fontStyle=1;rounded=0;sketch=0;" parent="178" vertex="1"><mxGeometry x="30" width="120" height="30" as="geometry"><mxRectangle width="120" height="30" as="alternateBounds"/></mxGeometry></mxCell><mxCell id="181" value="" style="shape=tableRow;horizontal=0;startSize=0;swimlaneHead=0;swimlaneBody=0;fillColor=none;collapsible=0;dropTarget=0;points=[[0,0.5],[1,0.5]];portConstraint=eastwest;top=0;left=0;right=0;bottom=0;fontSize=12;rounded=0;sketch=0;" parent="174" vertex="1"><mxGeometry y="90" width="150" height="30" as="geometry"/></mxCell><mxCell id="182" value="FK" style="shape=partialRectangle;connectable=0;fillColor=none;top=0;left=0;bottom=0;right=0;editable=1;overflow=hidden;fontSize=12;fontStyle=1;rounded=0;sketch=0;" parent="181" vertex="1"><mxGeometry width="30" height="30" as="geometry"><mxRectangle width="30" height="30" as="alternateBounds"/></mxGeometry></mxCell><mxCell id="183" value="divine_service_id" style="shape=partialRectangle;connectable=0;fillColor=none;top=0;left=0;bottom=0;right=0;align=left;spacingLeft=6;overflow=hidden;fontSize=12;fontStyle=1;rounded=0;sketch=0;" parent="181" vertex="1"><mxGeometry x="30" width="120" height="30" as="geometry"><mxRectangle width="120" height="30" as="alternateBounds"/></mxGeometry></mxCell><mxCell id="208" style="edgeStyle=orthogonalEdgeStyle;rounded=0;orthogonalLoop=1;jettySize=auto;html=1;exitX=0;exitY=0.5;exitDx=0;exitDy=0;entryX=1;entryY=0.5;entryDx=0;entryDy=0;fontSize=12;endArrow=ERmany;endFill=0;sketch=0;" parent="1" source="110" target="204" edge="1"><mxGeometry relative="1" as="geometry"/></mxCell><mxCell id="209" style="edgeStyle=orthogonalEdgeStyle;rounded=0;orthogonalLoop=1;jettySize=auto;html=1;exitX=0;exitY=0.5;exitDx=0;exitDy=0;entryX=1;entryY=0.5;entryDx=0;entryDy=0;fontSize=12;endArrow=ERmany;endFill=0;sketch=0;" parent="1" source="123" target="139" edge="1"><mxGeometry relative="1" as="geometry"/></mxCell><mxCell id="213" style="edgeStyle=orthogonalEdgeStyle;rounded=0;orthogonalLoop=1;jettySize=auto;html=1;exitX=0;exitY=0.5;exitDx=0;exitDy=0;entryX=1;entryY=0.5;entryDx=0;entryDy=0;fontSize=12;endArrow=ERmany;endFill=0;sketch=0;" parent="1" source="136" target="178" edge="1"><mxGeometry relative="1" as="geometry"/></mxCell><mxCell id="217" value="bible_books" style="shape=table;startSize=30;container=1;collapsible=1;childLayout=tableLayout;fixedRows=1;rowLines=0;fontStyle=1;align=center;resizeLast=1;fontSize=12;rounded=0;sketch=0;fillColor=#f8cecc;strokeColor=#b85450;swimlaneFillColor=#6CA9EF;gradientColor=#ea6b66;" parent="1" vertex="1"><mxGeometry x="160" y="440" width="140" height="240.00000000000068" as="geometry"/></mxCell><mxCell id="218" value="" style="shape=tableRow;horizontal=0;startSize=0;swimlaneHead=0;swimlaneBody=0;fillColor=none;collapsible=0;dropTarget=0;points=[[0,0.5],[1,0.5]];portConstraint=eastwest;top=0;left=0;right=0;bottom=1;fontSize=12;rounded=0;sketch=0;" parent="217" vertex="1"><mxGeometry y="30" width="140" height="30" as="geometry"/></mxCell><mxCell id="219" value="PK,FK" style="shape=partialRectangle;connectable=0;fillColor=none;top=0;left=0;bottom=0;right=0;fontStyle=1;overflow=hidden;fontSize=12;rounded=0;sketch=0;" parent="218" vertex="1"><mxGeometry width="40" height="30" as="geometry"><mxRectangle width="40" height="30" as="alternateBounds"/></mxGeometry></mxCell><mxCell id="220" value="book_id" style="shape=partialRectangle;connectable=0;fillColor=none;top=0;left=0;bottom=0;right=0;align=left;spacingLeft=6;fontStyle=5;overflow=hidden;fontSize=12;rounded=0;sketch=0;" parent="218" vertex="1"><mxGeometry x="40" width="100" height="30" as="geometry"><mxRectangle width="100" height="30" as="alternateBounds"/></mxGeometry></mxCell><mxCell id="221" value="" style="shape=tableRow;horizontal=0;startSize=0;swimlaneHead=0;swimlaneBody=0;fillColor=none;collapsible=0;dropTarget=0;points=[[0,0.5],[1,0.5]];portConstraint=eastwest;top=0;left=0;right=0;bottom=0;fontSize=12;rounded=0;sketch=0;" parent="217" vertex="1"><mxGeometry y="60" width="140" height="30" as="geometry"/></mxCell><mxCell id="222" value="" style="shape=partialRectangle;connectable=0;fillColor=none;top=0;left=0;bottom=0;right=0;editable=1;overflow=hidden;fontSize=12;rounded=0;sketch=0;" parent="221" vertex="1"><mxGeometry width="40" height="30" as="geometry"><mxRectangle width="40" height="30" as="alternateBounds"/></mxGeometry></mxCell><mxCell id="223" value="testament" style="shape=partialRectangle;connectable=0;fillColor=none;top=0;left=0;bottom=0;right=0;align=left;spacingLeft=6;overflow=hidden;fontSize=12;fontStyle=1;rounded=0;sketch=0;" parent="221" vertex="1"><mxGeometry x="40" width="100" height="30" as="geometry"><mxRectangle width="100" height="30" as="alternateBounds"/></mxGeometry></mxCell><mxCell id="224" value="" style="shape=tableRow;horizontal=0;startSize=0;swimlaneHead=0;swimlaneBody=0;fillColor=none;collapsible=0;dropTarget=0;points=[[0,0.5],[1,0.5]];portConstraint=eastwest;top=0;left=0;right=0;bottom=0;fontSize=12;rounded=0;sketch=0;" parent="217" vertex="1"><mxGeometry y="90" width="140" height="30" as="geometry"/></mxCell><mxCell id="225" value="" style="shape=partialRectangle;connectable=0;fillColor=none;top=0;left=0;bottom=0;right=0;editable=1;overflow=hidden;fontSize=12;rounded=0;sketch=0;" parent="224" vertex="1"><mxGeometry width="40" height="30" as="geometry"><mxRectangle width="40" height="30" as="alternateBounds"/></mxGeometry></mxCell><mxCell id="226" value="testament_ru" style="shape=partialRectangle;connectable=0;fillColor=none;top=0;left=0;bottom=0;right=0;align=left;spacingLeft=6;overflow=hidden;fontSize=12;rounded=0;sketch=0;" parent="224" vertex="1"><mxGeometry x="40" width="100" height="30" as="geometry"><mxRectangle width="100" height="30" as="alternateBounds"/></mxGeometry></mxCell><mxCell id="227" value="" style="shape=tableRow;horizontal=0;startSize=0;swimlaneHead=0;swimlaneBody=0;fillColor=none;collapsible=0;dropTarget=0;points=[[0,0.5],[1,0.5]];portConstraint=eastwest;top=0;left=0;right=0;bottom=0;fontSize=12;fontStyle=1;rounded=0;sketch=0;" parent="217" vertex="1"><mxGeometry y="120" width="140" height="30" as="geometry"/></mxCell><mxCell id="228" value="" style="shape=partialRectangle;connectable=0;fillColor=none;top=0;left=0;bottom=0;right=0;editable=1;overflow=hidden;fontSize=12;rounded=0;sketch=0;" parent="227" vertex="1"><mxGeometry width="40" height="30" as="geometry"><mxRectangle width="40" height="30" as="alternateBounds"/></mxGeometry></mxCell><mxCell id="229" value="part" style="shape=partialRectangle;connectable=0;fillColor=none;top=0;left=0;bottom=0;right=0;align=left;spacingLeft=6;overflow=hidden;fontSize=12;fontStyle=1;rounded=0;sketch=0;" parent="227" vertex="1"><mxGeometry x="40" width="100" height="30" as="geometry"><mxRectangle width="100" height="30" as="alternateBounds"/></mxGeometry></mxCell><mxCell id="230" value="" style="shape=tableRow;horizontal=0;startSize=0;swimlaneHead=0;swimlaneBody=0;fillColor=none;collapsible=0;dropTarget=0;points=[[0,0.5],[1,0.5]];portConstraint=eastwest;top=0;left=0;right=0;bottom=0;fontSize=12;fontStyle=1;rounded=0;sketch=0;" parent="217" vertex="1"><mxGeometry y="150" width="140" height="30" as="geometry"/></mxCell><mxCell id="231" value="" style="shape=partialRectangle;connectable=0;fillColor=none;top=0;left=0;bottom=0;right=0;editable=1;overflow=hidden;fontSize=12;rounded=0;sketch=0;" parent="230" vertex="1"><mxGeometry width="40" height="30" as="geometry"><mxRectangle width="40" height="30" as="alternateBounds"/></mxGeometry></mxCell><mxCell id="232" value="part_ru" style="shape=partialRectangle;connectable=0;fillColor=none;top=0;left=0;bottom=0;right=0;align=left;spacingLeft=6;overflow=hidden;fontSize=12;fontStyle=0;rounded=0;sketch=0;" parent="230" vertex="1"><mxGeometry x="40" width="100" height="30" as="geometry"><mxRectangle width="100" height="30" as="alternateBounds"/></mxGeometry></mxCell><mxCell id="239" value="" style="shape=tableRow;horizontal=0;startSize=0;swimlaneHead=0;swimlaneBody=0;fillColor=none;collapsible=0;dropTarget=0;points=[[0,0.5],[1,0.5]];portConstraint=eastwest;top=0;left=0;right=0;bottom=0;fontSize=12;fontStyle=1;rounded=0;sketch=0;" parent="217" vertex="1"><mxGeometry y="180" width="140" height="30" as="geometry"/></mxCell><mxCell id="240" value="" style="shape=partialRectangle;connectable=0;fillColor=none;top=0;left=0;bottom=0;right=0;editable=1;overflow=hidden;fontSize=12;rounded=0;sketch=0;" parent="239" vertex="1"><mxGeometry width="40" height="30" as="geometry"><mxRectangle width="40" height="30" as="alternateBounds"/></mxGeometry></mxCell><mxCell id="241" value="abbr_ru" style="shape=partialRectangle;connectable=0;fillColor=none;top=0;left=0;bottom=0;right=0;align=left;spacingLeft=6;overflow=hidden;fontSize=12;fontStyle=1;rounded=0;sketch=0;" parent="239" vertex="1"><mxGeometry x="40" width="100" height="30" as="geometry"><mxRectangle width="100" height="30" as="alternateBounds"/></mxGeometry></mxCell><mxCell id="236" value="" style="shape=tableRow;horizontal=0;startSize=0;swimlaneHead=0;swimlaneBody=0;fillColor=none;collapsible=0;dropTarget=0;points=[[0,0.5],[1,0.5]];portConstraint=eastwest;top=0;left=0;right=0;bottom=0;fontSize=12;fontStyle=1;rounded=0;sketch=0;" parent="217" vertex="1"><mxGeometry y="210" width="140" height="30" as="geometry"/></mxCell><mxCell id="237" value="" style="shape=partialRectangle;connectable=0;fillColor=none;top=0;left=0;bottom=0;right=0;editable=1;overflow=hidden;fontSize=12;rounded=0;sketch=0;" parent="236" vertex="1"><mxGeometry width="40" height="30" as="geometry"><mxRectangle width="40" height="30" as="alternateBounds"/></mxGeometry></mxCell><mxCell id="238" value="abbr" style="shape=partialRectangle;connectable=0;fillColor=none;top=0;left=0;bottom=0;right=0;align=left;spacingLeft=6;overflow=hidden;fontSize=12;fontStyle=0;rounded=0;sketch=0;" parent="236" vertex="1"><mxGeometry x="40" width="100" height="30" as="geometry"><mxRectangle width="100" height="30" as="alternateBounds"/></mxGeometry></mxCell><mxCell id="242" value="zachalos" style="shape=table;startSize=30;container=1;collapsible=1;childLayout=tableLayout;fixedRows=1;rowLines=0;fontStyle=1;align=center;resizeLast=1;fontSize=12;rounded=0;sketch=0;fillColor=#f8cecc;strokeColor=#b85450;swimlaneFillColor=#6CA9EF;" parent="1" vertex="1"><mxGeometry x="380" y="540" width="110" height="90.00000000000045" as="geometry"/></mxCell><mxCell id="243" value="" style="shape=tableRow;horizontal=0;startSize=0;swimlaneHead=0;swimlaneBody=0;fillColor=none;collapsible=0;dropTarget=0;points=[[0,0.5],[1,0.5]];portConstraint=eastwest;top=0;left=0;right=0;bottom=1;fontSize=12;rounded=0;sketch=0;" parent="242" vertex="1"><mxGeometry y="30" width="110" height="30" as="geometry"/></mxCell><mxCell id="244" value="PK,FK" style="shape=partialRectangle;connectable=0;fillColor=none;top=0;left=0;bottom=0;right=0;fontStyle=1;overflow=hidden;fontSize=12;rounded=0;sketch=0;" parent="243" vertex="1"><mxGeometry width="40" height="30" as="geometry"><mxRectangle width="40" height="30" as="alternateBounds"/></mxGeometry></mxCell><mxCell id="245" value="book_id" style="shape=partialRectangle;connectable=0;fillColor=none;top=0;left=0;bottom=0;right=0;align=left;spacingLeft=6;fontStyle=5;overflow=hidden;fontSize=12;rounded=0;sketch=0;" parent="243" vertex="1"><mxGeometry x="40" width="70" height="30" as="geometry"><mxRectangle width="70" height="30" as="alternateBounds"/></mxGeometry></mxCell><mxCell id="246" value="" style="shape=tableRow;horizontal=0;startSize=0;swimlaneHead=0;swimlaneBody=0;fillColor=none;collapsible=0;dropTarget=0;points=[[0,0.5],[1,0.5]];portConstraint=eastwest;top=0;left=0;right=0;bottom=0;fontSize=12;rounded=0;sketch=0;" parent="242" vertex="1"><mxGeometry y="60" width="110" height="30" as="geometry"/></mxCell><mxCell id="247" value="" style="shape=partialRectangle;connectable=0;fillColor=none;top=0;left=0;bottom=0;right=0;editable=1;overflow=hidden;fontSize=12;rounded=0;sketch=0;" parent="246" vertex="1"><mxGeometry width="40" height="30" as="geometry"><mxRectangle width="40" height="30" as="alternateBounds"/></mxGeometry></mxCell><mxCell id="248" value="num" style="shape=partialRectangle;connectable=0;fillColor=none;top=0;left=0;bottom=0;right=0;align=left;spacingLeft=6;overflow=hidden;fontSize=12;fontStyle=1;rounded=0;sketch=0;" parent="246" vertex="1"><mxGeometry x="40" width="70" height="30" as="geometry"><mxRectangle width="70" height="30" as="alternateBounds"/></mxGeometry></mxCell><mxCell id="270" value="readings" style="shape=table;startSize=30;container=1;collapsible=1;childLayout=tableLayout;fixedRows=1;rowLines=0;fontStyle=1;align=center;resizeLast=1;fontSize=12;rounded=0;sketch=0;fillColor=#ffe6cc;strokeColor=#d79b00;" parent="1" vertex="1"><mxGeometry x="620" y="410" width="180" height="90" as="geometry"/></mxCell><mxCell id="271" value="" style="shape=tableRow;horizontal=0;startSize=0;swimlaneHead=0;swimlaneBody=0;fillColor=none;collapsible=0;dropTarget=0;points=[[0,0.5],[1,0.5]];portConstraint=eastwest;top=0;left=0;right=0;bottom=0;fontSize=12;rounded=0;sketch=0;" parent="270" vertex="1"><mxGeometry y="30" width="180" height="30" as="geometry"/></mxCell><mxCell id="272" value="PK,FK1" style="shape=partialRectangle;connectable=0;fillColor=none;top=0;left=0;bottom=0;right=0;fontStyle=1;overflow=hidden;fontSize=12;rounded=0;sketch=0;" parent="271" vertex="1"><mxGeometry width="60" height="30" as="geometry"><mxRectangle width="60" height="30" as="alternateBounds"/></mxGeometry></mxCell><mxCell id="273" value="movable_date_id" style="shape=partialRectangle;connectable=0;fillColor=none;top=0;left=0;bottom=0;right=0;align=left;spacingLeft=6;fontStyle=5;overflow=hidden;fontSize=12;rounded=0;sketch=0;" parent="271" vertex="1"><mxGeometry x="60" width="120" height="30" as="geometry"><mxRectangle width="120" height="30" as="alternateBounds"/></mxGeometry></mxCell><mxCell id="274" value="" style="shape=tableRow;horizontal=0;startSize=0;swimlaneHead=0;swimlaneBody=0;fillColor=#6CA9EF;collapsible=0;dropTarget=0;points=[[0,0.5],[1,0.5]];portConstraint=eastwest;top=0;left=0;right=0;bottom=1;fontSize=12;rounded=0;sketch=0;" parent="270" vertex="1"><mxGeometry y="60" width="180" height="30" as="geometry"/></mxCell><mxCell id="275" value="PK,FK2" style="shape=partialRectangle;connectable=0;fillColor=none;top=0;left=0;bottom=0;right=0;fontStyle=1;overflow=hidden;fontSize=12;rounded=0;sketch=0;" parent="274" vertex="1"><mxGeometry width="60" height="30" as="geometry"><mxRectangle width="60" height="30" as="alternateBounds"/></mxGeometry></mxCell><mxCell id="276" value="book_id" style="shape=partialRectangle;connectable=0;fillColor=none;top=0;left=0;bottom=0;right=0;align=left;spacingLeft=6;fontStyle=5;overflow=hidden;fontSize=12;rounded=0;sketch=0;" parent="274" vertex="1"><mxGeometry x="60" width="120" height="30" as="geometry"><mxRectangle width="120" height="30" as="alternateBounds"/></mxGeometry></mxCell><mxCell id="286" style="edgeStyle=orthogonalEdgeStyle;rounded=0;orthogonalLoop=1;jettySize=auto;html=1;exitX=1;exitY=0.5;exitDx=0;exitDy=0;entryX=1;entryY=0.5;entryDx=0;entryDy=0;fontSize=12;endArrow=none;endFill=0;sketch=0;" parent="1" source="274" target="243" edge="1"><mxGeometry relative="1" as="geometry"/></mxCell><mxCell id="290" style="edgeStyle=orthogonalEdgeStyle;rounded=0;orthogonalLoop=1;jettySize=auto;html=1;exitX=0;exitY=0.5;exitDx=0;exitDy=0;entryX=1;entryY=0.5;entryDx=0;entryDy=0;fontSize=12;endArrow=ERmany;endFill=0;sketch=0;" parent="1" source="149" target="181" edge="1"><mxGeometry relative="1" as="geometry"/></mxCell><mxCell id="291" value="holidays" style="shape=table;startSize=30;container=1;collapsible=1;childLayout=tableLayout;fixedRows=1;rowLines=0;fontStyle=1;align=center;resizeLast=1;fontSize=12;rounded=0;sketch=0;fillColor=#e51400;strokeColor=#B20000;fontColor=#ffffff;swimlaneFillColor=#66FF66;" parent="1" vertex="1"><mxGeometry x="540" y="-250" width="170" height="240.00000000000023" as="geometry"/></mxCell><mxCell id="292" value="" style="shape=tableRow;horizontal=0;startSize=0;swimlaneHead=0;swimlaneBody=0;fillColor=none;collapsible=0;dropTarget=0;points=[[0,0.5],[1,0.5]];portConstraint=eastwest;top=0;left=0;right=0;bottom=1;fontSize=12;rounded=0;sketch=0;" parent="291" vertex="1"><mxGeometry y="30" width="170" height="30" as="geometry"/></mxCell><mxCell id="293" value="PK" style="shape=partialRectangle;connectable=0;fillColor=none;top=0;left=0;bottom=0;right=0;fontStyle=1;overflow=hidden;fontSize=12;rounded=0;sketch=0;" parent="292" vertex="1"><mxGeometry width="30" height="30" as="geometry"><mxRectangle width="30" height="30" as="alternateBounds"/></mxGeometry></mxCell><mxCell id="294" value="id" style="shape=partialRectangle;connectable=0;fillColor=none;top=0;left=0;bottom=0;right=0;align=left;spacingLeft=6;fontStyle=5;overflow=hidden;fontSize=12;rounded=0;sketch=0;" parent="292" vertex="1"><mxGeometry x="30" width="140" height="30" as="geometry"><mxRectangle width="140" height="30" as="alternateBounds"/></mxGeometry></mxCell><mxCell id="588" value="" style="shape=tableRow;horizontal=0;startSize=0;swimlaneHead=0;swimlaneBody=0;fillColor=none;collapsible=0;dropTarget=0;points=[[0,0.5],[1,0.5]];portConstraint=eastwest;top=0;left=0;right=0;bottom=0;fontSize=12;rounded=0;sketch=0;" parent="291" vertex="1"><mxGeometry y="60" width="170" height="25" as="geometry"/></mxCell><mxCell id="589" value="FK" style="shape=partialRectangle;connectable=0;fillColor=none;top=0;left=0;bottom=0;right=0;editable=1;overflow=hidden;fontSize=12;rounded=0;sketch=0;fontStyle=1" parent="588" vertex="1"><mxGeometry width="30" height="25" as="geometry"><mxRectangle width="30" height="25" as="alternateBounds"/></mxGeometry></mxCell><mxCell id="590" value="day_id" style="shape=partialRectangle;connectable=0;fillColor=none;top=0;left=0;bottom=0;right=0;align=left;spacingLeft=6;overflow=hidden;fontSize=12;rounded=0;sketch=0;fontStyle=1" parent="588" vertex="1"><mxGeometry x="30" width="140" height="25" as="geometry"><mxRectangle width="140" height="25" as="alternateBounds"/></mxGeometry></mxCell><mxCell id="596" value="" style="shape=tableRow;horizontal=0;startSize=0;swimlaneHead=0;swimlaneBody=0;fillColor=none;collapsible=0;dropTarget=0;points=[[0,0.5],[1,0.5]];portConstraint=eastwest;top=0;left=0;right=0;bottom=0;fontSize=12;rounded=0;sketch=0;" parent="291" vertex="1"><mxGeometry y="85" width="170" height="25" as="geometry"/></mxCell><mxCell id="597" value="FK" style="shape=partialRectangle;connectable=0;fillColor=none;top=0;left=0;bottom=0;right=0;editable=1;overflow=hidden;fontSize=12;rounded=0;sketch=0;fontStyle=1" parent="596" vertex="1"><mxGeometry width="30" height="25" as="geometry"><mxRectangle width="30" height="25" as="alternateBounds"/></mxGeometry></mxCell><mxCell id="598" value="movable_day_id" style="shape=partialRectangle;connectable=0;fillColor=none;top=0;left=0;bottom=0;right=0;align=left;spacingLeft=6;overflow=hidden;fontSize=12;rounded=0;sketch=0;fontStyle=1" parent="596" vertex="1"><mxGeometry x="30" width="140" height="25" as="geometry"><mxRectangle width="140" height="25" as="alternateBounds"/></mxGeometry></mxCell><mxCell id="513" value="" style="shape=tableRow;horizontal=0;startSize=0;swimlaneHead=0;swimlaneBody=0;fillColor=none;collapsible=0;dropTarget=0;points=[[0,0.5],[1,0.5]];portConstraint=eastwest;top=0;left=0;right=0;bottom=0;fontSize=12;rounded=0;sketch=0;" parent="291" vertex="1"><mxGeometry y="110" width="170" height="25" as="geometry"/></mxCell><mxCell id="514" value="FK" style="shape=partialRectangle;connectable=0;fillColor=none;top=0;left=0;bottom=0;right=0;editable=1;overflow=hidden;fontSize=12;rounded=0;sketch=0;fontStyle=1" parent="513" vertex="1"><mxGeometry width="30" height="25" as="geometry"><mxRectangle width="30" height="25" as="alternateBounds"/></mxGeometry></mxCell><mxCell id="515" value="typicon_id" style="shape=partialRectangle;connectable=0;fillColor=none;top=0;left=0;bottom=0;right=0;align=left;spacingLeft=6;overflow=hidden;fontSize=12;rounded=0;sketch=0;fontStyle=1" parent="513" vertex="1"><mxGeometry x="30" width="140" height="25" as="geometry"><mxRectangle width="140" height="25" as="alternateBounds"/></mxGeometry></mxCell><mxCell id="537" value="" style="shape=tableRow;horizontal=0;startSize=0;swimlaneHead=0;swimlaneBody=0;fillColor=none;collapsible=0;dropTarget=0;points=[[0,0.5],[1,0.5]];portConstraint=eastwest;top=0;left=0;right=0;bottom=0;fontSize=12;rounded=0;sketch=0;" parent="291" vertex="1"><mxGeometry y="135" width="170" height="25" as="geometry"/></mxCell><mxCell id="538" value="FK" style="shape=partialRectangle;connectable=0;fillColor=none;top=0;left=0;bottom=0;right=0;editable=1;overflow=hidden;fontSize=12;rounded=0;sketch=0;fontStyle=1" parent="537" vertex="1"><mxGeometry width="30" height="25" as="geometry"><mxRectangle width="30" height="25" as="alternateBounds"/></mxGeometry></mxCell><mxCell id="539" value="year_id" style="shape=partialRectangle;connectable=0;fillColor=none;top=0;left=0;bottom=0;right=0;align=left;spacingLeft=6;overflow=hidden;fontSize=12;rounded=0;sketch=0;fontStyle=1" parent="537" vertex="1"><mxGeometry x="30" width="140" height="25" as="geometry"><mxRectangle width="140" height="25" as="alternateBounds"/></mxGeometry></mxCell><mxCell id="862" value="" style="shape=tableRow;horizontal=0;startSize=0;swimlaneHead=0;swimlaneBody=0;fillColor=none;collapsible=0;dropTarget=0;points=[[0,0.5],[1,0.5]];portConstraint=eastwest;top=0;left=0;right=0;bottom=0;fontSize=12;rounded=0;sketch=0;" parent="291" vertex="1"><mxGeometry y="160" width="170" height="30" as="geometry"/></mxCell><mxCell id="863" value="FK" style="shape=partialRectangle;connectable=0;fillColor=none;top=0;left=0;bottom=0;right=0;editable=1;overflow=hidden;fontSize=12;rounded=0;sketch=0;fontStyle=1" parent="862" vertex="1"><mxGeometry width="30" height="30" as="geometry"><mxRectangle width="30" height="30" as="alternateBounds"/></mxGeometry></mxCell><mxCell id="864" value="holiday_type_id" style="shape=partialRectangle;connectable=0;fillColor=none;top=0;left=0;bottom=0;right=0;align=left;spacingLeft=6;overflow=hidden;fontSize=12;rounded=0;sketch=0;fontStyle=1;" parent="862" vertex="1"><mxGeometry x="30" width="140" height="30" as="geometry"><mxRectangle width="140" height="30" as="alternateBounds"/></mxGeometry></mxCell><mxCell id="298" value="" style="shape=tableRow;horizontal=0;startSize=0;swimlaneHead=0;swimlaneBody=0;fillColor=none;collapsible=0;dropTarget=0;points=[[0,0.5],[1,0.5]];portConstraint=eastwest;top=0;left=0;right=0;bottom=0;fontSize=12;rounded=0;sketch=0;" parent="291" vertex="1"><mxGeometry y="190" width="170" height="30" as="geometry"/></mxCell><mxCell id="299" value="" style="shape=partialRectangle;connectable=0;fillColor=none;top=0;left=0;bottom=0;right=0;editable=1;overflow=hidden;fontSize=12;rounded=0;sketch=0;" parent="298" vertex="1"><mxGeometry width="30" height="30" as="geometry"><mxRectangle width="30" height="30" as="alternateBounds"/></mxGeometry></mxCell><mxCell id="300" value="slug" style="shape=partialRectangle;connectable=0;fillColor=none;top=0;left=0;bottom=0;right=0;align=left;spacingLeft=6;overflow=hidden;fontSize=12;rounded=0;sketch=0;fontStyle=1;" parent="298" vertex="1"><mxGeometry x="30" width="140" height="30" as="geometry"><mxRectangle width="140" height="30" as="alternateBounds"/></mxGeometry></mxCell><mxCell id="295" value="" style="shape=tableRow;horizontal=0;startSize=0;swimlaneHead=0;swimlaneBody=0;fillColor=none;collapsible=0;dropTarget=0;points=[[0,0.5],[1,0.5]];portConstraint=eastwest;top=0;left=0;right=0;bottom=0;fontSize=12;rounded=0;sketch=0;" parent="291" vertex="1"><mxGeometry y="220" width="170" height="20" as="geometry"/></mxCell><mxCell id="296" value="" style="shape=partialRectangle;connectable=0;fillColor=none;top=0;left=0;bottom=0;right=0;editable=1;overflow=hidden;fontSize=12;rounded=0;sketch=0;" parent="295" vertex="1"><mxGeometry width="30" height="20" as="geometry"><mxRectangle width="30" height="20" as="alternateBounds"/></mxGeometry></mxCell><mxCell id="297" value="title" style="shape=partialRectangle;connectable=0;fillColor=none;top=0;left=0;bottom=0;right=0;align=left;spacingLeft=6;overflow=hidden;fontSize=12;rounded=0;sketch=0;" parent="295" vertex="1"><mxGeometry x="30" width="140" height="20" as="geometry"><mxRectangle width="140" height="20" as="alternateBounds"/></mxGeometry></mxCell><mxCell id="305" value="books" style="shape=table;startSize=30;container=1;collapsible=1;childLayout=tableLayout;fixedRows=1;rowLines=0;fontStyle=1;align=center;resizeLast=1;fontSize=12;rounded=0;sketch=0;fillColor=#e51400;strokeColor=#B20000;fontColor=#ffffff;fillStyle=auto;swimlaneFillColor=#6CA9EF;gradientColor=none;" parent="1" vertex="1"><mxGeometry x="-200" y="380" width="110" height="150" as="geometry"/></mxCell><mxCell id="306" value="" style="shape=tableRow;horizontal=0;startSize=0;swimlaneHead=0;swimlaneBody=0;fillColor=none;collapsible=0;dropTarget=0;points=[[0,0.5],[1,0.5]];portConstraint=eastwest;top=0;left=0;right=0;bottom=1;fontSize=12;rounded=0;sketch=0;" parent="305" vertex="1"><mxGeometry y="30" width="110" height="30" as="geometry"/></mxCell><mxCell id="307" value="PK" style="shape=partialRectangle;connectable=0;fillColor=none;top=0;left=0;bottom=0;right=0;fontStyle=1;overflow=hidden;fontSize=12;rounded=0;sketch=0;" parent="306" vertex="1"><mxGeometry width="30" height="30" as="geometry"><mxRectangle width="30" height="30" as="alternateBounds"/></mxGeometry></mxCell><mxCell id="308" value="id" style="shape=partialRectangle;connectable=0;fillColor=none;top=0;left=0;bottom=0;right=0;align=left;spacingLeft=6;fontStyle=5;overflow=hidden;fontSize=12;rounded=0;sketch=0;" parent="306" vertex="1"><mxGeometry x="30" width="80" height="30" as="geometry"><mxRectangle width="80" height="30" as="alternateBounds"/></mxGeometry></mxCell><mxCell id="807" value="" style="shape=tableRow;horizontal=0;startSize=0;swimlaneHead=0;swimlaneBody=0;fillColor=none;collapsible=0;dropTarget=0;points=[[0,0.5],[1,0.5]];portConstraint=eastwest;top=0;left=0;right=0;bottom=0;fontSize=12;rounded=0;sketch=0;" parent="305" vertex="1"><mxGeometry y="60" width="110" height="30" as="geometry"/></mxCell><mxCell id="808" value="FK" style="shape=partialRectangle;connectable=0;fillColor=none;top=0;left=0;bottom=0;right=0;editable=1;overflow=hidden;fontSize=12;rounded=0;sketch=0;fontStyle=1" parent="807" vertex="1"><mxGeometry width="30" height="30" as="geometry"><mxRectangle width="30" height="30" as="alternateBounds"/></mxGeometry></mxCell><mxCell id="809" value="author_id" style="shape=partialRectangle;connectable=0;fillColor=none;top=0;left=0;bottom=0;right=0;align=left;spacingLeft=6;overflow=hidden;fontSize=12;rounded=0;sketch=0;fontStyle=1" parent="807" vertex="1"><mxGeometry x="30" width="80" height="30" as="geometry"><mxRectangle width="80" height="30" as="alternateBounds"/></mxGeometry></mxCell><mxCell id="843" value="" style="shape=tableRow;horizontal=0;startSize=0;swimlaneHead=0;swimlaneBody=0;fillColor=none;collapsible=0;dropTarget=0;points=[[0,0.5],[1,0.5]];portConstraint=eastwest;top=0;left=0;right=0;bottom=0;fontSize=12;rounded=0;sketch=0;" parent="305" vertex="1"><mxGeometry y="90" width="110" height="30" as="geometry"/></mxCell><mxCell id="844" value="FK" style="shape=partialRectangle;connectable=0;fillColor=none;top=0;left=0;bottom=0;right=0;editable=1;overflow=hidden;fontSize=12;rounded=0;sketch=0;fontStyle=1" parent="843" vertex="1"><mxGeometry width="30" height="30" as="geometry"><mxRectangle width="30" height="30" as="alternateBounds"/></mxGeometry></mxCell><mxCell id="845" value="year_id" style="shape=partialRectangle;connectable=0;fillColor=none;top=0;left=0;bottom=0;right=0;align=left;spacingLeft=6;overflow=hidden;fontSize=12;rounded=0;sketch=0;fontStyle=1" parent="843" vertex="1"><mxGeometry x="30" width="80" height="30" as="geometry"><mxRectangle width="80" height="30" as="alternateBounds"/></mxGeometry></mxCell><mxCell id="309" value="" style="shape=tableRow;horizontal=0;startSize=0;swimlaneHead=0;swimlaneBody=0;fillColor=none;collapsible=0;dropTarget=0;points=[[0,0.5],[1,0.5]];portConstraint=eastwest;top=0;left=0;right=0;bottom=0;fontSize=12;rounded=0;sketch=0;" parent="305" vertex="1"><mxGeometry y="120" width="110" height="30" as="geometry"/></mxCell><mxCell id="310" value="" style="shape=partialRectangle;connectable=0;fillColor=none;top=0;left=0;bottom=0;right=0;editable=1;overflow=hidden;fontSize=12;rounded=0;sketch=0;" parent="309" vertex="1"><mxGeometry width="30" height="30" as="geometry"><mxRectangle width="30" height="30" as="alternateBounds"/></mxGeometry></mxCell><mxCell id="311" value="title" style="shape=partialRectangle;connectable=0;fillColor=none;top=0;left=0;bottom=0;right=0;align=left;spacingLeft=6;overflow=hidden;fontSize=12;rounded=0;sketch=0;" parent="309" vertex="1"><mxGeometry x="30" width="80" height="30" as="geometry"><mxRectangle width="80" height="30" as="alternateBounds"/></mxGeometry></mxCell><mxCell id="456" value="holidays_saints" style="shape=table;startSize=30;container=1;collapsible=1;childLayout=tableLayout;fixedRows=1;rowLines=0;fontStyle=1;align=center;resizeLast=1;fillColor=#fff2cc;strokeColor=#d6b656;" parent="1" vertex="1"><mxGeometry x="310" y="-520" width="150" height="90" as="geometry"/></mxCell><mxCell id="457" value="" style="shape=tableRow;horizontal=0;startSize=0;swimlaneHead=0;swimlaneBody=0;fillColor=#66FF66;collapsible=0;dropTarget=0;points=[[0,0.5],[1,0.5]];portConstraint=eastwest;top=0;left=0;right=0;bottom=0;strokeColor=#82b366;" parent="456" vertex="1"><mxGeometry y="30" width="150" height="30" as="geometry"/></mxCell><mxCell id="458" value="PK,FK1" style="shape=partialRectangle;connectable=0;fillColor=none;top=0;left=0;bottom=0;right=0;fontStyle=1;overflow=hidden;" parent="457" vertex="1"><mxGeometry width="60" height="30" as="geometry"><mxRectangle width="60" height="30" as="alternateBounds"/></mxGeometry></mxCell><mxCell id="459" value="holiday_id" style="shape=partialRectangle;connectable=0;fillColor=none;top=0;left=0;bottom=0;right=0;align=left;spacingLeft=6;fontStyle=5;overflow=hidden;" parent="457" vertex="1"><mxGeometry x="60" width="90" height="30" as="geometry"><mxRectangle width="90" height="30" as="alternateBounds"/></mxGeometry></mxCell><mxCell id="460" value="" style="shape=tableRow;horizontal=0;startSize=0;swimlaneHead=0;swimlaneBody=0;fillColor=#FFFF66;collapsible=0;dropTarget=0;points=[[0,0.5],[1,0.5]];portConstraint=eastwest;top=0;left=0;right=0;bottom=1;gradientColor=#FFFF66;strokeColor=#d6b656;" parent="456" vertex="1"><mxGeometry y="60" width="150" height="30" as="geometry"/></mxCell><mxCell id="461" value="PK,FK2" style="shape=partialRectangle;connectable=0;fillColor=none;top=0;left=0;bottom=0;right=0;fontStyle=1;overflow=hidden;" parent="460" vertex="1"><mxGeometry width="60" height="30" as="geometry"><mxRectangle width="60" height="30" as="alternateBounds"/></mxGeometry></mxCell><mxCell id="462" value="saint_id" style="shape=partialRectangle;connectable=0;fillColor=none;top=0;left=0;bottom=0;right=0;align=left;spacingLeft=6;fontStyle=5;overflow=hidden;" parent="460" vertex="1"><mxGeometry x="60" width="90" height="30" as="geometry"><mxRectangle width="90" height="30" as="alternateBounds"/></mxGeometry></mxCell><mxCell id="475" value="typicons" style="shape=table;startSize=30;container=1;collapsible=1;childLayout=tableLayout;fixedRows=1;rowLines=0;fontStyle=1;align=center;resizeLast=1;fillColor=#d5e8d4;strokeColor=#82b366;" parent="1" vertex="1"><mxGeometry x="760" y="-120" width="90" height="110" as="geometry"/></mxCell><mxCell id="476" value="" style="shape=tableRow;horizontal=0;startSize=0;swimlaneHead=0;swimlaneBody=0;fillColor=none;collapsible=0;dropTarget=0;points=[[0,0.5],[1,0.5]];portConstraint=eastwest;top=0;left=0;right=0;bottom=1;" parent="475" vertex="1"><mxGeometry y="30" width="90" height="30" as="geometry"/></mxCell><mxCell id="477" value="PK" style="shape=partialRectangle;connectable=0;fillColor=none;top=0;left=0;bottom=0;right=0;fontStyle=1;overflow=hidden;" parent="476" vertex="1"><mxGeometry width="30" height="30" as="geometry"><mxRectangle width="30" height="30" as="alternateBounds"/></mxGeometry></mxCell><mxCell id="478" value="id" style="shape=partialRectangle;connectable=0;fillColor=none;top=0;left=0;bottom=0;right=0;align=left;spacingLeft=6;fontStyle=5;overflow=hidden;" parent="476" vertex="1"><mxGeometry x="30" width="60" height="30" as="geometry"><mxRectangle width="60" height="30" as="alternateBounds"/></mxGeometry></mxCell><mxCell id="479" value="" style="shape=tableRow;horizontal=0;startSize=0;swimlaneHead=0;swimlaneBody=0;fillColor=none;collapsible=0;dropTarget=0;points=[[0,0.5],[1,0.5]];portConstraint=eastwest;top=0;left=0;right=0;bottom=0;" parent="475" vertex="1"><mxGeometry y="60" width="90" height="30" as="geometry"/></mxCell><mxCell id="480" value="" style="shape=partialRectangle;connectable=0;fillColor=none;top=0;left=0;bottom=0;right=0;editable=1;overflow=hidden;" parent="479" vertex="1"><mxGeometry width="30" height="30" as="geometry"><mxRectangle width="30" height="30" as="alternateBounds"/></mxGeometry></mxCell><mxCell id="481" value="num" style="shape=partialRectangle;connectable=0;fillColor=none;top=0;left=0;bottom=0;right=0;align=left;spacingLeft=6;overflow=hidden;fontStyle=1" parent="479" vertex="1"><mxGeometry x="30" width="60" height="30" as="geometry"><mxRectangle width="60" height="30" as="alternateBounds"/></mxGeometry></mxCell><mxCell id="482" value="" style="shape=tableRow;horizontal=0;startSize=0;swimlaneHead=0;swimlaneBody=0;fillColor=none;collapsible=0;dropTarget=0;points=[[0,0.5],[1,0.5]];portConstraint=eastwest;top=0;left=0;right=0;bottom=0;" parent="475" vertex="1"><mxGeometry y="90" width="90" height="20" as="geometry"/></mxCell><mxCell id="483" value="" style="shape=partialRectangle;connectable=0;fillColor=none;top=0;left=0;bottom=0;right=0;editable=1;overflow=hidden;" parent="482" vertex="1"><mxGeometry width="30" height="20" as="geometry"><mxRectangle width="30" height="20" as="alternateBounds"/></mxGeometry></mxCell><mxCell id="484" value="title" style="shape=partialRectangle;connectable=0;fillColor=none;top=0;left=0;bottom=0;right=0;align=left;spacingLeft=6;overflow=hidden;" parent="482" vertex="1"><mxGeometry x="30" width="60" height="20" as="geometry"><mxRectangle width="60" height="20" as="alternateBounds"/></mxGeometry></mxCell><mxCell id="536" style="edgeStyle=orthogonalEdgeStyle;rounded=0;orthogonalLoop=1;jettySize=auto;html=1;entryX=1;entryY=0.5;entryDx=0;entryDy=0;endArrow=ERmany;endFill=0;" parent="1" source="476" target="513" edge="1"><mxGeometry relative="1" as="geometry"/></mxCell><mxCell id="592" style="edgeStyle=orthogonalEdgeStyle;rounded=0;orthogonalLoop=1;jettySize=auto;html=1;exitX=0;exitY=0.5;exitDx=0;exitDy=0;entryX=1;entryY=0.5;entryDx=0;entryDy=0;endArrow=ERmany;endFill=0;" parent="1" source="67" target="588" edge="1"><mxGeometry relative="1" as="geometry"/></mxCell><mxCell id="685" value="dates" style="shape=table;startSize=30;container=1;collapsible=1;childLayout=tableLayout;fixedRows=1;rowLines=0;fontStyle=1;align=center;resizeLast=1;fillColor=#e51400;strokeColor=#B20000;fontColor=#ffffff;" parent="1" vertex="1"><mxGeometry x="1280" y="-190" width="180" height="120" as="geometry"/></mxCell><mxCell id="686" value="" style="shape=tableRow;horizontal=0;startSize=0;swimlaneHead=0;swimlaneBody=0;fillColor=none;collapsible=0;dropTarget=0;points=[[0,0.5],[1,0.5]];portConstraint=eastwest;top=0;left=0;right=0;bottom=0;" parent="685" vertex="1"><mxGeometry y="30" width="180" height="30" as="geometry"/></mxCell><mxCell id="687" value="PK,FK1" style="shape=partialRectangle;connectable=0;fillColor=none;top=0;left=0;bottom=0;right=0;fontStyle=1;overflow=hidden;" parent="686" vertex="1"><mxGeometry width="60" height="30" as="geometry"><mxRectangle width="60" height="30" as="alternateBounds"/></mxGeometry></mxCell><mxCell id="688" value="day_id" style="shape=partialRectangle;connectable=0;fillColor=none;top=0;left=0;bottom=0;right=0;align=left;spacingLeft=6;fontStyle=5;overflow=hidden;" parent="686" vertex="1"><mxGeometry x="60" width="120" height="30" as="geometry"><mxRectangle width="120" height="30" as="alternateBounds"/></mxGeometry></mxCell><mxCell id="689" value="" style="shape=tableRow;horizontal=0;startSize=0;swimlaneHead=0;swimlaneBody=0;fillColor=none;collapsible=0;dropTarget=0;points=[[0,0.5],[1,0.5]];portConstraint=eastwest;top=0;left=0;right=0;bottom=1;" parent="685" vertex="1"><mxGeometry y="60" width="180" height="30" as="geometry"/></mxCell><mxCell id="690" value="PK,FK2" style="shape=partialRectangle;connectable=0;fillColor=none;top=0;left=0;bottom=0;right=0;fontStyle=1;overflow=hidden;" parent="689" vertex="1"><mxGeometry width="60" height="30" as="geometry"><mxRectangle width="60" height="30" as="alternateBounds"/></mxGeometry></mxCell><mxCell id="691" value="movable_day_id" style="shape=partialRectangle;connectable=0;fillColor=none;top=0;left=0;bottom=0;right=0;align=left;spacingLeft=6;fontStyle=5;overflow=hidden;" parent="689" vertex="1"><mxGeometry x="60" width="120" height="30" as="geometry"><mxRectangle width="120" height="30" as="alternateBounds"/></mxGeometry></mxCell><mxCell id="692" value="" style="shape=tableRow;horizontal=0;startSize=0;swimlaneHead=0;swimlaneBody=0;fillColor=none;collapsible=0;dropTarget=0;points=[[0,0.5],[1,0.5]];portConstraint=eastwest;top=0;left=0;right=0;bottom=0;" parent="685" vertex="1"><mxGeometry y="90" width="180" height="30" as="geometry"/></mxCell><mxCell id="693" value="" style="shape=partialRectangle;connectable=0;fillColor=none;top=0;left=0;bottom=0;right=0;editable=1;overflow=hidden;" parent="692" vertex="1"><mxGeometry width="60" height="30" as="geometry"><mxRectangle width="60" height="30" as="alternateBounds"/></mxGeometry></mxCell><mxCell id="694" value="_offset_year" style="shape=partialRectangle;connectable=0;fillColor=none;top=0;left=0;bottom=0;right=0;align=left;spacingLeft=6;overflow=hidden;fontStyle=1" parent="692" vertex="1"><mxGeometry x="60" width="120" height="30" as="geometry"><mxRectangle width="120" height="30" as="alternateBounds"/></mxGeometry></mxCell><mxCell id="700" style="edgeStyle=orthogonalEdgeStyle;rounded=0;orthogonalLoop=1;jettySize=auto;html=1;entryX=0;entryY=0.5;entryDx=0;entryDy=0;endArrow=none;endFill=0;" parent="1" source="67" target="686" edge="1"><mxGeometry relative="1" as="geometry"/></mxCell><mxCell id="701" style="edgeStyle=orthogonalEdgeStyle;rounded=0;orthogonalLoop=1;jettySize=auto;html=1;exitX=1;exitY=0.5;exitDx=0;exitDy=0;entryX=0;entryY=0.5;entryDx=0;entryDy=0;endArrow=none;endFill=0;" parent="1" source="136" target="689" edge="1"><mxGeometry relative="1" as="geometry"/></mxCell><mxCell id="788" style="edgeStyle=elbowEdgeStyle;rounded=0;orthogonalLoop=1;jettySize=auto;html=1;entryX=1;entryY=0.5;entryDx=0;entryDy=0;startArrow=none;startFill=0;endArrow=ERmany;endFill=0;" parent="1" source="136" target="596" edge="1"><mxGeometry relative="1" as="geometry"/></mxCell><mxCell id="823" style="edgeStyle=elbowEdgeStyle;rounded=0;orthogonalLoop=1;jettySize=auto;html=1;exitX=0;exitY=0.5;exitDx=0;exitDy=0;entryX=1;entryY=0.5;entryDx=0;entryDy=0;startArrow=none;startFill=0;endArrow=ERmany;endFill=0;" parent="1" source="3" target="807" edge="1"><mxGeometry relative="1" as="geometry"/></mxCell><mxCell id="824" value="interpretations" style="shape=table;startSize=30;container=1;collapsible=1;childLayout=tableLayout;fixedRows=1;rowLines=0;fontStyle=1;align=center;resizeLast=1;fillColor=#f8cecc;strokeColor=#b85450;swimlaneFillColor=#6CA9EF;" parent="1" vertex="1"><mxGeometry x="-510" y="490" width="210" height="90" as="geometry"/></mxCell><mxCell id="825" value="" style="shape=tableRow;horizontal=0;startSize=0;swimlaneHead=0;swimlaneBody=0;fillColor=none;collapsible=0;dropTarget=0;points=[[0,0.5],[1,0.5]];portConstraint=eastwest;top=0;left=0;right=0;bottom=1;" parent="824" vertex="1"><mxGeometry y="30" width="210" height="30" as="geometry"/></mxCell><mxCell id="826" value="PK,FK" style="shape=partialRectangle;connectable=0;fillColor=none;top=0;left=0;bottom=0;right=0;fontStyle=1;overflow=hidden;" parent="825" vertex="1"><mxGeometry width="40" height="30" as="geometry"><mxRectangle width="40" height="30" as="alternateBounds"/></mxGeometry></mxCell><mxCell id="827" value="book_id" style="shape=partialRectangle;connectable=0;fillColor=none;top=0;left=0;bottom=0;right=0;align=left;spacingLeft=6;fontStyle=5;overflow=hidden;" parent="825" vertex="1"><mxGeometry x="40" width="170" height="30" as="geometry"><mxRectangle width="170" height="30" as="alternateBounds"/></mxGeometry></mxCell><mxCell id="828" value="" style="shape=tableRow;horizontal=0;startSize=0;swimlaneHead=0;swimlaneBody=0;fillColor=none;collapsible=0;dropTarget=0;points=[[0,0.5],[1,0.5]];portConstraint=eastwest;top=0;left=0;right=0;bottom=0;" parent="824" vertex="1"><mxGeometry y="60" width="210" height="30" as="geometry"/></mxCell><mxCell id="829" value="FK" style="shape=partialRectangle;connectable=0;fillColor=none;top=0;left=0;bottom=0;right=0;editable=1;overflow=hidden;fontStyle=1" parent="828" vertex="1"><mxGeometry width="40" height="30" as="geometry"><mxRectangle width="40" height="30" as="alternateBounds"/></mxGeometry></mxCell><mxCell id="830" value="book_interpretation_id " style="shape=partialRectangle;connectable=0;fillColor=none;top=0;left=0;bottom=0;right=0;align=left;spacingLeft=6;overflow=hidden;fontStyle=1" parent="828" vertex="1"><mxGeometry x="40" width="170" height="30" as="geometry"><mxRectangle width="170" height="30" as="alternateBounds"/></mxGeometry></mxCell><mxCell id="840" value="" style="shape=tableRow;horizontal=0;startSize=0;swimlaneHead=0;swimlaneBody=0;fillColor=none;collapsible=0;dropTarget=0;points=[[0,0.5],[1,0.5]];portConstraint=eastwest;top=0;left=0;right=0;bottom=0;fontSize=12;rounded=0;sketch=0;" parent="1" vertex="1"><mxGeometry x="-80" y="530" width="170" height="25" as="geometry"/></mxCell><mxCell id="1081" style="edgeStyle=elbowEdgeStyle;rounded=0;orthogonalLoop=1;jettySize=auto;html=1;entryX=1;entryY=0.5;entryDx=0;entryDy=0;startArrow=none;startFill=0;endArrow=ERmany;endFill=0;" parent="1" source="865" target="862" edge="1"><mxGeometry relative="1" as="geometry"/></mxCell><mxCell id="865" value="holidays_types" style="shape=table;startSize=30;container=1;collapsible=1;childLayout=tableLayout;fixedRows=1;rowLines=0;fontStyle=1;align=center;resizeLast=1;fillColor=#d5e8d4;strokeColor=#82b366;" parent="1" vertex="1"><mxGeometry x="740" y="30" width="110" height="90" as="geometry"/></mxCell><mxCell id="866" value="" style="shape=tableRow;horizontal=0;startSize=0;swimlaneHead=0;swimlaneBody=0;fillColor=none;collapsible=0;dropTarget=0;points=[[0,0.5],[1,0.5]];portConstraint=eastwest;top=0;left=0;right=0;bottom=1;" parent="865" vertex="1"><mxGeometry y="30" width="110" height="30" as="geometry"/></mxCell><mxCell id="867" value="PK" style="shape=partialRectangle;connectable=0;fillColor=none;top=0;left=0;bottom=0;right=0;fontStyle=1;overflow=hidden;" parent="866" vertex="1"><mxGeometry width="30" height="30" as="geometry"><mxRectangle width="30" height="30" as="alternateBounds"/></mxGeometry></mxCell><mxCell id="868" value="id" style="shape=partialRectangle;connectable=0;fillColor=none;top=0;left=0;bottom=0;right=0;align=left;spacingLeft=6;fontStyle=5;overflow=hidden;" parent="866" vertex="1"><mxGeometry x="30" width="80" height="30" as="geometry"><mxRectangle width="80" height="30" as="alternateBounds"/></mxGeometry></mxCell><mxCell id="869" value="" style="shape=tableRow;horizontal=0;startSize=0;swimlaneHead=0;swimlaneBody=0;fillColor=none;collapsible=0;dropTarget=0;points=[[0,0.5],[1,0.5]];portConstraint=eastwest;top=0;left=0;right=0;bottom=0;" parent="865" vertex="1"><mxGeometry y="60" width="110" height="30" as="geometry"/></mxCell><mxCell id="870" value="" style="shape=partialRectangle;connectable=0;fillColor=none;top=0;left=0;bottom=0;right=0;editable=1;overflow=hidden;" parent="869" vertex="1"><mxGeometry width="30" height="30" as="geometry"><mxRectangle width="30" height="30" as="alternateBounds"/></mxGeometry></mxCell><mxCell id="871" value="title" style="shape=partialRectangle;connectable=0;fillColor=none;top=0;left=0;bottom=0;right=0;align=left;spacingLeft=6;overflow=hidden;fontStyle=1" parent="869" vertex="1"><mxGeometry x="30" width="80" height="30" as="geometry"><mxRectangle width="80" height="30" as="alternateBounds"/></mxGeometry></mxCell><mxCell id="919" style="edgeStyle=elbowEdgeStyle;rounded=0;orthogonalLoop=1;jettySize=auto;html=1;exitX=0;exitY=0.5;exitDx=0;exitDy=0;entryX=1;entryY=0.5;entryDx=0;entryDy=0;startArrow=none;startFill=0;endArrow=ERmany;endFill=0;" parent="1" source="306" target="828" edge="1"><mxGeometry relative="1" as="geometry"><Array as="points"><mxPoint x="-250" y="520"/></Array></mxGeometry></mxCell><mxCell id="937" style="edgeStyle=elbowEdgeStyle;rounded=0;orthogonalLoop=1;jettySize=auto;html=1;entryX=1;entryY=0.5;entryDx=0;entryDy=0;startArrow=none;startFill=0;endArrow=none;endFill=0;" parent="1" source="920" target="306" edge="1"><mxGeometry relative="1" as="geometry"/></mxCell><mxCell id="920" value="books_holidays" style="shape=table;startSize=30;container=1;collapsible=1;childLayout=tableLayout;fixedRows=1;rowLines=0;fontStyle=1;align=center;resizeLast=1;fontSize=12;rounded=0;sketch=0;fillColor=#f8cecc;strokeColor=#b85450;swimlaneFillColor=#6CA9EF;" parent="1" vertex="1"><mxGeometry x="360" y="380" width="150" height="90" as="geometry"/></mxCell><mxCell id="921" value="" style="shape=tableRow;horizontal=0;startSize=0;swimlaneHead=0;swimlaneBody=0;fillColor=none;collapsible=0;dropTarget=0;points=[[0,0.5],[1,0.5]];portConstraint=eastwest;top=0;left=0;right=0;bottom=1;fontSize=12;rounded=0;sketch=0;" parent="920" vertex="1"><mxGeometry y="30" width="150" height="30" as="geometry"/></mxCell><mxCell id="922" value="PK,FK" style="shape=partialRectangle;connectable=0;fillColor=none;top=0;left=0;bottom=0;right=0;fontStyle=1;overflow=hidden;fontSize=12;rounded=0;sketch=0;" parent="921" vertex="1"><mxGeometry width="40" height="30" as="geometry"><mxRectangle width="40" height="30" as="alternateBounds"/></mxGeometry></mxCell><mxCell id="923" value="book_id" style="shape=partialRectangle;connectable=0;fillColor=none;top=0;left=0;bottom=0;right=0;align=left;spacingLeft=6;fontStyle=5;overflow=hidden;fontSize=12;rounded=0;sketch=0;" parent="921" vertex="1"><mxGeometry x="40" width="110" height="30" as="geometry"><mxRectangle width="110" height="30" as="alternateBounds"/></mxGeometry></mxCell><mxCell id="924" value="" style="shape=tableRow;horizontal=0;startSize=0;swimlaneHead=0;swimlaneBody=0;fillColor=none;collapsible=0;dropTarget=0;points=[[0,0.5],[1,0.5]];portConstraint=eastwest;top=0;left=0;right=0;bottom=0;fontSize=12;rounded=0;sketch=0;" parent="920" vertex="1"><mxGeometry y="60" width="150" height="30" as="geometry"/></mxCell><mxCell id="925" value="FK" style="shape=partialRectangle;connectable=0;fillColor=none;top=0;left=0;bottom=0;right=0;editable=1;overflow=hidden;fontSize=12;fontStyle=1;rounded=0;sketch=0;" parent="924" vertex="1"><mxGeometry width="40" height="30" as="geometry"><mxRectangle width="40" height="30" as="alternateBounds"/></mxGeometry></mxCell><mxCell id="926" value="holiday_id" style="shape=partialRectangle;connectable=0;fillColor=#00FF00;top=0;left=0;bottom=0;right=0;align=left;spacingLeft=6;overflow=hidden;fontSize=12;fontStyle=1;rounded=0;sketch=0;" parent="924" vertex="1"><mxGeometry x="40" width="110" height="30" as="geometry"><mxRectangle width="110" height="30" as="alternateBounds"/></mxGeometry></mxCell><mxCell id="936" style="edgeStyle=elbowEdgeStyle;rounded=0;orthogonalLoop=1;jettySize=auto;html=1;exitX=0;exitY=0.5;exitDx=0;exitDy=0;entryX=1;entryY=0.5;entryDx=0;entryDy=0;startArrow=none;startFill=0;endArrow=ERmany;endFill=0;" parent="1" source="292" target="924" edge="1"><mxGeometry relative="1" as="geometry"/></mxCell><mxCell id="963" style="edgeStyle=elbowEdgeStyle;rounded=0;orthogonalLoop=1;jettySize=auto;html=1;entryX=0;entryY=0.5;entryDx=0;entryDy=0;startArrow=none;startFill=0;endArrow=none;endFill=0;" parent="1" source="218" target="243" edge="1"><mxGeometry relative="1" as="geometry"/></mxCell><mxCell id="975" value="manuscripts" style="shape=table;startSize=30;container=1;collapsible=1;childLayout=tableLayout;fixedRows=1;rowLines=0;fontStyle=1;align=center;resizeLast=1;fillStyle=auto;strokeColor=#B20000;strokeWidth=1;fillColor=#e51400;fontColor=#ffffff;swimlaneFillColor=#CC99FF;" parent="1" vertex="1"><mxGeometry x="-780" y="-150" width="160" height="220" as="geometry"/></mxCell><mxCell id="976" value="" style="shape=tableRow;horizontal=0;startSize=0;swimlaneHead=0;swimlaneBody=0;fillColor=none;collapsible=0;dropTarget=0;points=[[0,0.5],[1,0.5]];portConstraint=eastwest;top=0;left=0;right=0;bottom=1;fillStyle=auto;strokeColor=default;strokeWidth=1;" parent="975" vertex="1"><mxGeometry y="30" width="160" height="30" as="geometry"/></mxCell><mxCell id="977" value="PK" style="shape=partialRectangle;connectable=0;fillColor=none;top=0;left=0;bottom=0;right=0;fontStyle=1;overflow=hidden;fillStyle=auto;strokeColor=default;strokeWidth=1;" parent="976" vertex="1"><mxGeometry width="30" height="30" as="geometry"><mxRectangle width="30" height="30" as="alternateBounds"/></mxGeometry></mxCell><mxCell id="978" value="id" style="shape=partialRectangle;connectable=0;fillColor=none;top=0;left=0;bottom=0;right=0;align=left;spacingLeft=6;fontStyle=5;overflow=hidden;fillStyle=auto;strokeColor=default;strokeWidth=1;" parent="976" vertex="1"><mxGeometry x="30" width="130" height="30" as="geometry"><mxRectangle width="130" height="30" as="alternateBounds"/></mxGeometry></mxCell><mxCell id="979" value="" style="shape=tableRow;horizontal=0;startSize=0;swimlaneHead=0;swimlaneBody=0;fillColor=none;collapsible=0;dropTarget=0;points=[[0,0.5],[1,0.5]];portConstraint=eastwest;top=0;left=0;right=0;bottom=0;fillStyle=auto;strokeColor=default;strokeWidth=1;" parent="975" vertex="1"><mxGeometry y="60" width="160" height="30" as="geometry"/></mxCell><mxCell id="980" value="FK" style="shape=partialRectangle;connectable=0;fillColor=none;top=0;left=0;bottom=0;right=0;editable=1;overflow=hidden;fillStyle=auto;strokeColor=default;strokeWidth=1;fontStyle=1" parent="979" vertex="1"><mxGeometry width="30" height="30" as="geometry"><mxRectangle width="30" height="30" as="alternateBounds"/></mxGeometry></mxCell><mxCell id="981" value="year_id" style="shape=partialRectangle;connectable=0;fillColor=none;top=0;left=0;bottom=0;right=0;align=left;spacingLeft=6;overflow=hidden;fillStyle=auto;strokeColor=default;strokeWidth=1;fontStyle=1" parent="979" vertex="1"><mxGeometry x="30" width="130" height="30" as="geometry"><mxRectangle width="130" height="30" as="alternateBounds"/></mxGeometry></mxCell><mxCell id="982" value="" style="shape=tableRow;horizontal=0;startSize=0;swimlaneHead=0;swimlaneBody=0;fillColor=none;collapsible=0;dropTarget=0;points=[[0,0.5],[1,0.5]];portConstraint=eastwest;top=0;left=0;right=0;bottom=0;fillStyle=auto;strokeColor=default;strokeWidth=1;" parent="975" vertex="1"><mxGeometry y="90" width="160" height="35" as="geometry"/></mxCell><mxCell id="983" value="FK" style="shape=partialRectangle;connectable=0;fillColor=none;top=0;left=0;bottom=0;right=0;editable=1;overflow=hidden;fillStyle=auto;strokeColor=default;strokeWidth=1;fontStyle=1" parent="982" vertex="1"><mxGeometry width="30" height="35" as="geometry"><mxRectangle width="30" height="35" as="alternateBounds"/></mxGeometry></mxCell><mxCell id="984" value="scribe_id" style="shape=partialRectangle;connectable=0;fillColor=none;top=0;left=0;bottom=0;right=0;align=left;spacingLeft=6;overflow=hidden;fillStyle=auto;strokeColor=default;strokeWidth=1;fontStyle=1" parent="982" vertex="1"><mxGeometry x="30" width="130" height="35" as="geometry"><mxRectangle width="130" height="35" as="alternateBounds"/></mxGeometry></mxCell><mxCell id="985" value="" style="shape=tableRow;horizontal=0;startSize=0;swimlaneHead=0;swimlaneBody=0;fillColor=none;collapsible=0;dropTarget=0;points=[[0,0.5],[1,0.5]];portConstraint=eastwest;top=0;left=0;right=0;bottom=0;fillStyle=auto;strokeColor=default;strokeWidth=1;" parent="975" vertex="1"><mxGeometry y="125" width="160" height="30" as="geometry"/></mxCell><mxCell id="986" value="" style="shape=partialRectangle;connectable=0;fillColor=none;top=0;left=0;bottom=0;right=0;editable=1;overflow=hidden;fillStyle=auto;strokeColor=default;strokeWidth=1;" parent="985" vertex="1"><mxGeometry width="30" height="30" as="geometry"><mxRectangle width="30" height="30" as="alternateBounds"/></mxGeometry></mxCell><mxCell id="987" value="title" style="shape=partialRectangle;connectable=0;fillColor=none;top=0;left=0;bottom=0;right=0;align=left;spacingLeft=6;overflow=hidden;fillStyle=auto;strokeColor=default;strokeWidth=1;" parent="985" vertex="1"><mxGeometry x="30" width="130" height="30" as="geometry"><mxRectangle width="130" height="30" as="alternateBounds"/></mxGeometry></mxCell><mxCell id="1186" value="" style="shape=tableRow;horizontal=0;startSize=0;swimlaneHead=0;swimlaneBody=0;fillColor=none;collapsible=0;dropTarget=0;points=[[0,0.5],[1,0.5]];portConstraint=eastwest;top=0;left=0;right=0;bottom=0;fillStyle=auto;strokeColor=default;strokeWidth=1;" parent="975" vertex="1"><mxGeometry y="155" width="160" height="35" as="geometry"/></mxCell><mxCell id="1187" value="" style="shape=partialRectangle;connectable=0;fillColor=none;top=0;left=0;bottom=0;right=0;editable=1;overflow=hidden;fillStyle=auto;strokeColor=default;strokeWidth=1;" parent="1186" vertex="1"><mxGeometry width="30" height="35" as="geometry"><mxRectangle width="30" height="35" as="alternateBounds"/></mxGeometry></mxCell><mxCell id="1188" value="num_pages" style="shape=partialRectangle;connectable=0;fillColor=none;top=0;left=0;bottom=0;right=0;align=left;spacingLeft=6;overflow=hidden;fillStyle=auto;strokeColor=default;strokeWidth=1;" parent="1186" vertex="1"><mxGeometry x="30" width="130" height="35" as="geometry"><mxRectangle width="130" height="35" as="alternateBounds"/></mxGeometry></mxCell><mxCell id="1221" value="" style="shape=tableRow;horizontal=0;startSize=0;swimlaneHead=0;swimlaneBody=0;fillColor=none;collapsible=0;dropTarget=0;points=[[0,0.5],[1,0.5]];portConstraint=eastwest;top=0;left=0;right=0;bottom=0;fillStyle=auto;strokeColor=default;strokeWidth=1;" parent="975" vertex="1"><mxGeometry y="190" width="160" height="30" as="geometry"/></mxCell><mxCell id="1222" value="" style="shape=partialRectangle;connectable=0;fillColor=none;top=0;left=0;bottom=0;right=0;editable=1;overflow=hidden;fillStyle=auto;strokeColor=default;strokeWidth=1;" parent="1221" vertex="1"><mxGeometry width="30" height="30" as="geometry"><mxRectangle width="30" height="30" as="alternateBounds"/></mxGeometry></mxCell><mxCell id="1223" value="num_meta_pages" style="shape=partialRectangle;connectable=0;fillColor=none;top=0;left=0;bottom=0;right=0;align=left;spacingLeft=6;overflow=hidden;fillStyle=auto;strokeColor=default;strokeWidth=1;" parent="1221" vertex="1"><mxGeometry x="30" width="130" height="30" as="geometry"><mxRectangle width="130" height="30" as="alternateBounds"/></mxGeometry></mxCell><mxCell id="988" value="manuscripts_books" style="shape=table;startSize=30;container=1;collapsible=1;childLayout=tableLayout;fixedRows=1;rowLines=0;fontStyle=1;align=center;resizeLast=1;fillStyle=auto;strokeColor=#d79b00;strokeWidth=1;fillColor=#ffe6cc;" parent="1" vertex="1"><mxGeometry x="-465" y="200" width="180" height="150" as="geometry"/></mxCell><mxCell id="989" value="" style="shape=tableRow;horizontal=0;startSize=0;swimlaneHead=0;swimlaneBody=0;fillColor=#6CA9EF;collapsible=0;dropTarget=0;points=[[0,0.5],[1,0.5]];portConstraint=eastwest;top=0;left=0;right=0;bottom=0;fillStyle=auto;strokeColor=default;strokeWidth=1;swimlaneFillColor=none;" parent="988" vertex="1"><mxGeometry y="30" width="180" height="30" as="geometry"/></mxCell><mxCell id="990" value="PK,FK1" style="shape=partialRectangle;connectable=0;fillColor=none;top=0;left=0;bottom=0;right=0;fontStyle=1;overflow=hidden;fillStyle=auto;strokeColor=default;strokeWidth=1;" parent="989" vertex="1"><mxGeometry width="60" height="30" as="geometry"><mxRectangle width="60" height="30" as="alternateBounds"/></mxGeometry></mxCell><mxCell id="991" value="book_id" style="shape=partialRectangle;connectable=0;fillColor=none;top=0;left=0;bottom=0;right=0;align=left;spacingLeft=6;fontStyle=5;overflow=hidden;fillStyle=auto;strokeColor=default;strokeWidth=1;" parent="989" vertex="1"><mxGeometry x="60" width="120" height="30" as="geometry"><mxRectangle width="120" height="30" as="alternateBounds"/></mxGeometry></mxCell><mxCell id="992" value="" style="shape=tableRow;horizontal=0;startSize=0;swimlaneHead=0;swimlaneBody=0;fillColor=#9933FF;collapsible=0;dropTarget=0;points=[[0,0.5],[1,0.5]];portConstraint=eastwest;top=0;left=0;right=0;bottom=1;fillStyle=auto;strokeColor=default;strokeWidth=1;swimlaneFillColor=none;" parent="988" vertex="1"><mxGeometry y="60" width="180" height="30" as="geometry"/></mxCell><mxCell id="993" value="PK,FK2" style="shape=partialRectangle;connectable=0;fillColor=#9933FF;top=0;left=0;bottom=0;right=0;fontStyle=1;overflow=hidden;fillStyle=auto;strokeColor=default;strokeWidth=1;" parent="992" vertex="1"><mxGeometry width="60" height="30" as="geometry"><mxRectangle width="60" height="30" as="alternateBounds"/></mxGeometry></mxCell><mxCell id="994" value="manuscript_id" style="shape=partialRectangle;connectable=0;fillColor=none;top=0;left=0;bottom=0;right=0;align=left;spacingLeft=6;fontStyle=5;overflow=hidden;fillStyle=auto;strokeColor=none;strokeWidth=1;" parent="992" vertex="1"><mxGeometry x="60" width="120" height="30" as="geometry"><mxRectangle width="120" height="30" as="alternateBounds"/></mxGeometry></mxCell><mxCell id="995" value="" style="shape=tableRow;horizontal=0;startSize=0;swimlaneHead=0;swimlaneBody=0;fillColor=none;collapsible=0;dropTarget=0;points=[[0,0.5],[1,0.5]];portConstraint=eastwest;top=0;left=0;right=0;bottom=0;fillStyle=auto;strokeColor=default;strokeWidth=1;" parent="988" vertex="1"><mxGeometry y="90" width="180" height="30" as="geometry"/></mxCell><mxCell id="996" value="FK" style="shape=partialRectangle;connectable=0;fillColor=none;top=0;left=0;bottom=0;right=0;editable=1;overflow=hidden;fillStyle=auto;strokeColor=default;strokeWidth=1;fontStyle=1" parent="995" vertex="1"><mxGeometry width="60" height="30" as="geometry"><mxRectangle width="60" height="30" as="alternateBounds"/></mxGeometry></mxCell><mxCell id="997" value="first_page_id" style="shape=partialRectangle;connectable=0;fillColor=none;top=0;left=0;bottom=0;right=0;align=left;spacingLeft=6;overflow=hidden;fillStyle=auto;strokeColor=default;strokeWidth=1;fontStyle=1" parent="995" vertex="1"><mxGeometry x="60" width="120" height="30" as="geometry"><mxRectangle width="120" height="30" as="alternateBounds"/></mxGeometry></mxCell><mxCell id="998" value="" style="shape=tableRow;horizontal=0;startSize=0;swimlaneHead=0;swimlaneBody=0;fillColor=none;collapsible=0;dropTarget=0;points=[[0,0.5],[1,0.5]];portConstraint=eastwest;top=0;left=0;right=0;bottom=0;fillStyle=auto;strokeColor=default;strokeWidth=1;fontStyle=1" parent="988" vertex="1"><mxGeometry y="120" width="180" height="30" as="geometry"/></mxCell><mxCell id="999" value="FK" style="shape=partialRectangle;connectable=0;fillColor=none;top=0;left=0;bottom=0;right=0;editable=1;overflow=hidden;fillStyle=auto;strokeColor=default;strokeWidth=1;fontStyle=1" parent="998" vertex="1"><mxGeometry width="60" height="30" as="geometry"><mxRectangle width="60" height="30" as="alternateBounds"/></mxGeometry></mxCell><mxCell id="1000" value="last_page_id" style="shape=partialRectangle;connectable=0;fillColor=none;top=0;left=0;bottom=0;right=0;align=left;spacingLeft=6;overflow=hidden;fillStyle=auto;strokeColor=default;strokeWidth=1;fontStyle=1" parent="998" vertex="1"><mxGeometry x="60" width="120" height="30" as="geometry"><mxRectangle width="120" height="30" as="alternateBounds"/></mxGeometry></mxCell><mxCell id="1001" style="edgeStyle=elbowEdgeStyle;rounded=0;orthogonalLoop=1;jettySize=auto;html=1;exitX=1;exitY=0.5;exitDx=0;exitDy=0;entryX=0;entryY=0.5;entryDx=0;entryDy=0;startArrow=none;startFill=0;endArrow=none;endFill=0;" parent="1" source="976" target="992" edge="1"><mxGeometry relative="1" as="geometry"/></mxCell><mxCell id="1002" style="edgeStyle=elbowEdgeStyle;rounded=0;orthogonalLoop=1;jettySize=auto;html=1;exitX=1;exitY=0.5;exitDx=0;exitDy=0;entryX=0;entryY=0.5;entryDx=0;entryDy=0;startArrow=none;startFill=0;endArrow=none;endFill=0;" parent="1" source="989" target="306" edge="1"><mxGeometry relative="1" as="geometry"/></mxCell><mxCell id="1004" style="edgeStyle=elbowEdgeStyle;rounded=0;orthogonalLoop=1;jettySize=auto;html=1;exitX=0;exitY=0.5;exitDx=0;exitDy=0;entryX=1;entryY=0.5;entryDx=0;entryDy=0;startArrow=none;startFill=0;endArrow=ERmany;endFill=0;" parent="1" source="54" target="979" edge="1"><mxGeometry relative="1" as="geometry"><Array as="points"><mxPoint x="-520" y="-230"/></Array></mxGeometry></mxCell><mxCell id="1041" style="edgeStyle=elbowEdgeStyle;rounded=0;orthogonalLoop=1;jettySize=auto;html=1;exitX=1;exitY=0.5;exitDx=0;exitDy=0;entryX=0;entryY=0.5;entryDx=0;entryDy=0;startArrow=none;startFill=0;endArrow=ERmany;endFill=0;" parent="1" source="54" target="843" edge="1"><mxGeometry relative="1" as="geometry"><Array as="points"><mxPoint x="-270" y="80"/></Array></mxGeometry></mxCell><mxCell id="1044" style="edgeStyle=elbowEdgeStyle;rounded=0;orthogonalLoop=1;jettySize=auto;html=1;exitX=1;exitY=0.5;exitDx=0;exitDy=0;entryX=0;entryY=0.5;entryDx=0;entryDy=0;startArrow=none;startFill=0;endArrow=ERmany;endFill=0;" parent="1" source="54" target="537" edge="1"><mxGeometry relative="1" as="geometry"/></mxCell><mxCell id="1110" style="edgeStyle=elbowEdgeStyle;rounded=0;orthogonalLoop=1;jettySize=auto;html=1;entryX=0;entryY=0.5;entryDx=0;entryDy=0;startArrow=none;startFill=0;endArrow=none;endFill=0;" parent="1" source="825" target="306" edge="1"><mxGeometry relative="1" as="geometry"/></mxCell><mxCell id="1126" value="sermons" style="shape=table;startSize=30;container=1;collapsible=1;childLayout=tableLayout;fixedRows=1;rowLines=0;fontStyle=1;align=center;resizeLast=1;fillColor=#f8cecc;strokeColor=#b85450;swimlaneFillColor=#6CA9EF;" parent="1" vertex="1"><mxGeometry x="-640" y="380" width="130" height="90" as="geometry"/></mxCell><mxCell id="1127" value="" style="shape=tableRow;horizontal=0;startSize=0;swimlaneHead=0;swimlaneBody=0;fillColor=none;collapsible=0;dropTarget=0;points=[[0,0.5],[1,0.5]];portConstraint=eastwest;top=0;left=0;right=0;bottom=1;" parent="1126" vertex="1"><mxGeometry y="30" width="130" height="30" as="geometry"/></mxCell><mxCell id="1128" value="PK,FK" style="shape=partialRectangle;connectable=0;fillColor=none;top=0;left=0;bottom=0;right=0;fontStyle=1;overflow=hidden;" parent="1127" vertex="1"><mxGeometry width="40" height="30" as="geometry"><mxRectangle width="40" height="30" as="alternateBounds"/></mxGeometry></mxCell><mxCell id="1129" value="book_id" style="shape=partialRectangle;connectable=0;fillColor=none;top=0;left=0;bottom=0;right=0;align=left;spacingLeft=6;fontStyle=5;overflow=hidden;" parent="1127" vertex="1"><mxGeometry x="40" width="90" height="30" as="geometry"><mxRectangle width="90" height="30" as="alternateBounds"/></mxGeometry></mxCell><mxCell id="1130" value="" style="shape=tableRow;horizontal=0;startSize=0;swimlaneHead=0;swimlaneBody=0;fillColor=none;collapsible=0;dropTarget=0;points=[[0,0.5],[1,0.5]];portConstraint=eastwest;top=0;left=0;right=0;bottom=0;" parent="1126" vertex="1"><mxGeometry y="60" width="130" height="30" as="geometry"/></mxCell><mxCell id="1131" value="FK" style="shape=partialRectangle;connectable=0;fillColor=none;top=0;left=0;bottom=0;right=0;editable=1;overflow=hidden;fontStyle=1" parent="1130" vertex="1"><mxGeometry width="40" height="30" as="geometry"><mxRectangle width="40" height="30" as="alternateBounds"/></mxGeometry></mxCell><mxCell id="1132" value="topic_id" style="shape=partialRectangle;connectable=0;fillColor=none;top=0;left=0;bottom=0;right=0;align=left;spacingLeft=6;overflow=hidden;fontStyle=1" parent="1130" vertex="1"><mxGeometry x="40" width="90" height="30" as="geometry"><mxRectangle width="90" height="30" as="alternateBounds"/></mxGeometry></mxCell><mxCell id="1133" style="edgeStyle=elbowEdgeStyle;rounded=0;orthogonalLoop=1;jettySize=auto;html=1;exitX=1;exitY=0.5;exitDx=0;exitDy=0;entryX=0;entryY=0.5;entryDx=0;entryDy=0;startArrow=none;startFill=0;endArrow=none;endFill=0;" parent="1" source="1127" target="306" edge="1"><mxGeometry relative="1" as="geometry"/></mxCell><mxCell id="1134" value="topics" style="shape=table;startSize=30;container=1;collapsible=1;childLayout=tableLayout;fixedRows=1;rowLines=0;fontStyle=1;align=center;resizeLast=1;fillStyle=auto;strokeColor=#B20000;strokeWidth=1;fillColor=#e51400;fontColor=#ffffff;" parent="1" vertex="1"><mxGeometry x="-860" y="480" width="150" height="150" as="geometry"/></mxCell><mxCell id="1175" style="edgeStyle=elbowEdgeStyle;rounded=0;orthogonalLoop=1;jettySize=auto;html=1;exitX=0;exitY=0.5;exitDx=0;exitDy=0;entryX=0;entryY=0.5;entryDx=0;entryDy=0;startArrow=none;startFill=0;endArrow=ERmany;endFill=0;" parent="1134" source="1135" target="1138" edge="1"><mxGeometry relative="1" as="geometry"><Array as="points"><mxPoint x="-39" y="60"/></Array></mxGeometry></mxCell><mxCell id="1135" value="" style="shape=tableRow;horizontal=0;startSize=0;swimlaneHead=0;swimlaneBody=0;fillColor=none;collapsible=0;dropTarget=0;points=[[0,0.5],[1,0.5]];portConstraint=eastwest;top=0;left=0;right=0;bottom=1;fillStyle=auto;strokeColor=default;strokeWidth=1;" parent="1134" vertex="1"><mxGeometry y="30" width="150" height="30" as="geometry"/></mxCell><mxCell id="1136" value="PK" style="shape=partialRectangle;connectable=0;fillColor=none;top=0;left=0;bottom=0;right=0;fontStyle=1;overflow=hidden;fillStyle=auto;strokeColor=default;strokeWidth=1;" parent="1135" vertex="1"><mxGeometry width="30" height="30" as="geometry"><mxRectangle width="30" height="30" as="alternateBounds"/></mxGeometry></mxCell><mxCell id="1137" value="id" style="shape=partialRectangle;connectable=0;fillColor=none;top=0;left=0;bottom=0;right=0;align=left;spacingLeft=6;fontStyle=5;overflow=hidden;fillStyle=auto;strokeColor=default;strokeWidth=1;" parent="1135" vertex="1"><mxGeometry x="30" width="120" height="30" as="geometry"><mxRectangle width="120" height="30" as="alternateBounds"/></mxGeometry></mxCell><mxCell id="1138" value="" style="shape=tableRow;horizontal=0;startSize=0;swimlaneHead=0;swimlaneBody=0;fillColor=none;collapsible=0;dropTarget=0;points=[[0,0.5],[1,0.5]];portConstraint=eastwest;top=0;left=0;right=0;bottom=0;fillStyle=auto;strokeColor=default;strokeWidth=1;" parent="1134" vertex="1"><mxGeometry y="60" width="150" height="30" as="geometry"/></mxCell><mxCell id="1139" value="FK" style="shape=partialRectangle;connectable=0;fillColor=none;top=0;left=0;bottom=0;right=0;editable=1;overflow=hidden;fillStyle=auto;strokeColor=default;strokeWidth=1;fontStyle=1" parent="1138" vertex="1"><mxGeometry width="30" height="30" as="geometry"><mxRectangle width="30" height="30" as="alternateBounds"/></mxGeometry></mxCell><mxCell id="1140" value="parent_topic_id" style="shape=partialRectangle;connectable=0;fillColor=none;top=0;left=0;bottom=0;right=0;align=left;spacingLeft=6;overflow=hidden;fillStyle=auto;strokeColor=default;strokeWidth=1;fontStyle=1" parent="1138" vertex="1"><mxGeometry x="30" width="120" height="30" as="geometry"><mxRectangle width="120" height="30" as="alternateBounds"/></mxGeometry></mxCell><mxCell id="1144" value="" style="shape=tableRow;horizontal=0;startSize=0;swimlaneHead=0;swimlaneBody=0;fillColor=none;collapsible=0;dropTarget=0;points=[[0,0.5],[1,0.5]];portConstraint=eastwest;top=0;left=0;right=0;bottom=0;fillStyle=auto;strokeColor=default;strokeWidth=1;" parent="1134" vertex="1"><mxGeometry y="90" width="150" height="30" as="geometry"/></mxCell><mxCell id="1145" value="" style="shape=partialRectangle;connectable=0;fillColor=none;top=0;left=0;bottom=0;right=0;editable=1;overflow=hidden;fillStyle=auto;strokeColor=default;strokeWidth=1;" parent="1144" vertex="1"><mxGeometry width="30" height="30" as="geometry"><mxRectangle width="30" height="30" as="alternateBounds"/></mxGeometry></mxCell><mxCell id="1146" value="slug" style="shape=partialRectangle;connectable=0;fillColor=none;top=0;left=0;bottom=0;right=0;align=left;spacingLeft=6;overflow=hidden;fillStyle=auto;strokeColor=default;strokeWidth=1;fontStyle=1" parent="1144" vertex="1"><mxGeometry x="30" width="120" height="30" as="geometry"><mxRectangle width="120" height="30" as="alternateBounds"/></mxGeometry></mxCell><mxCell id="1141" value="" style="shape=tableRow;horizontal=0;startSize=0;swimlaneHead=0;swimlaneBody=0;fillColor=none;collapsible=0;dropTarget=0;points=[[0,0.5],[1,0.5]];portConstraint=eastwest;top=0;left=0;right=0;bottom=0;fillStyle=auto;strokeColor=default;strokeWidth=1;" parent="1134" vertex="1"><mxGeometry y="120" width="150" height="30" as="geometry"/></mxCell><mxCell id="1142" value="" style="shape=partialRectangle;connectable=0;fillColor=none;top=0;left=0;bottom=0;right=0;editable=1;overflow=hidden;fillStyle=auto;strokeColor=default;strokeWidth=1;" parent="1141" vertex="1"><mxGeometry width="30" height="30" as="geometry"><mxRectangle width="30" height="30" as="alternateBounds"/></mxGeometry></mxCell><mxCell id="1143" value="title" style="shape=partialRectangle;connectable=0;fillColor=none;top=0;left=0;bottom=0;right=0;align=left;spacingLeft=6;overflow=hidden;fillStyle=auto;strokeColor=default;strokeWidth=1;" parent="1141" vertex="1"><mxGeometry x="30" width="120" height="30" as="geometry"><mxRectangle width="120" height="30" as="alternateBounds"/></mxGeometry></mxCell><mxCell id="1185" style="edgeStyle=elbowEdgeStyle;rounded=0;orthogonalLoop=1;jettySize=auto;html=1;exitX=1;exitY=0.5;exitDx=0;exitDy=0;entryX=0;entryY=0.5;entryDx=0;entryDy=0;startArrow=none;startFill=0;endArrow=ERmany;endFill=0;" parent="1" source="1135" target="1130" edge="1"><mxGeometry relative="1" as="geometry"/></mxCell><mxCell id="1189" value="pages" style="shape=table;startSize=30;container=1;collapsible=1;childLayout=tableLayout;fixedRows=1;rowLines=0;fontStyle=1;align=center;resizeLast=1;fillStyle=auto;strokeColor=#82b366;strokeWidth=1;fillColor=#d5e8d4;gradientColor=#97d077;" parent="1" vertex="1"><mxGeometry x="-760" y="180" width="110" height="120" as="geometry"/></mxCell><mxCell id="1190" value="" style="shape=tableRow;horizontal=0;startSize=0;swimlaneHead=0;swimlaneBody=0;fillColor=none;collapsible=0;dropTarget=0;points=[[0,0.5],[1,0.5]];portConstraint=eastwest;top=0;left=0;right=0;bottom=1;fillStyle=auto;strokeColor=default;strokeWidth=1;" parent="1189" vertex="1"><mxGeometry y="30" width="110" height="30" as="geometry"/></mxCell><mxCell id="1191" value="PK" style="shape=partialRectangle;connectable=0;fillColor=none;top=0;left=0;bottom=0;right=0;fontStyle=1;overflow=hidden;fillStyle=auto;strokeColor=default;strokeWidth=1;" parent="1190" vertex="1"><mxGeometry width="30" height="30" as="geometry"><mxRectangle width="30" height="30" as="alternateBounds"/></mxGeometry></mxCell><mxCell id="1192" value="id" style="shape=partialRectangle;connectable=0;fillColor=none;top=0;left=0;bottom=0;right=0;align=left;spacingLeft=6;fontStyle=5;overflow=hidden;fillStyle=auto;strokeColor=default;strokeWidth=1;" parent="1190" vertex="1"><mxGeometry x="30" width="80" height="30" as="geometry"><mxRectangle width="80" height="30" as="alternateBounds"/></mxGeometry></mxCell><mxCell id="1193" value="" style="shape=tableRow;horizontal=0;startSize=0;swimlaneHead=0;swimlaneBody=0;fillColor=none;collapsible=0;dropTarget=0;points=[[0,0.5],[1,0.5]];portConstraint=eastwest;top=0;left=0;right=0;bottom=0;fillStyle=auto;strokeColor=default;strokeWidth=1;" parent="1189" vertex="1"><mxGeometry y="60" width="110" height="30" as="geometry"/></mxCell><mxCell id="1194" value="" style="shape=partialRectangle;connectable=0;fillColor=none;top=0;left=0;bottom=0;right=0;editable=1;overflow=hidden;fillStyle=auto;strokeColor=default;strokeWidth=1;" parent="1193" vertex="1"><mxGeometry width="30" height="30" as="geometry"><mxRectangle width="30" height="30" as="alternateBounds"/></mxGeometry></mxCell><mxCell id="1195" value="num" style="shape=partialRectangle;connectable=0;fillColor=none;top=0;left=0;bottom=0;right=0;align=left;spacingLeft=6;overflow=hidden;fillStyle=auto;strokeColor=default;strokeWidth=1;fontStyle=1" parent="1193" vertex="1"><mxGeometry x="30" width="80" height="30" as="geometry"><mxRectangle width="80" height="30" as="alternateBounds"/></mxGeometry></mxCell><mxCell id="1196" value="" style="shape=tableRow;horizontal=0;startSize=0;swimlaneHead=0;swimlaneBody=0;fillColor=none;collapsible=0;dropTarget=0;points=[[0,0.5],[1,0.5]];portConstraint=eastwest;top=0;left=0;right=0;bottom=0;fillStyle=auto;strokeColor=default;strokeWidth=1;" parent="1189" vertex="1"><mxGeometry y="90" width="110" height="30" as="geometry"/></mxCell><mxCell id="1197" value="" style="shape=partialRectangle;connectable=0;fillColor=none;top=0;left=0;bottom=0;right=0;editable=1;overflow=hidden;fillStyle=auto;strokeColor=default;strokeWidth=1;" parent="1196" vertex="1"><mxGeometry width="30" height="30" as="geometry"><mxRectangle width="30" height="30" as="alternateBounds"/></mxGeometry></mxCell><mxCell id="1198" value="position" style="shape=partialRectangle;connectable=0;fillColor=none;top=0;left=0;bottom=0;right=0;align=left;spacingLeft=6;overflow=hidden;fillStyle=auto;strokeColor=default;strokeWidth=1;fontStyle=1" parent="1196" vertex="1"><mxGeometry x="30" width="80" height="30" as="geometry"><mxRectangle width="80" height="30" as="alternateBounds"/></mxGeometry></mxCell><mxCell id="1216" style="edgeStyle=elbowEdgeStyle;rounded=0;orthogonalLoop=1;jettySize=auto;html=1;exitX=1;exitY=0.5;exitDx=0;exitDy=0;entryX=0;entryY=0.5;entryDx=0;entryDy=0;startArrow=none;startFill=0;endArrow=ERmany;endFill=0;" parent="1" source="1190" target="995" edge="1"><mxGeometry relative="1" as="geometry"/></mxCell><mxCell id="1217" style="edgeStyle=elbowEdgeStyle;rounded=0;orthogonalLoop=1;jettySize=auto;html=1;exitX=1;exitY=0.5;exitDx=0;exitDy=0;entryX=0;entryY=0.5;entryDx=0;entryDy=0;startArrow=none;startFill=0;endArrow=ERmany;endFill=0;" parent="1" source="1190" target="998" edge="1"><mxGeometry relative="1" as="geometry"/></mxCell><mxCell id="1225" value="icons" style="shape=table;startSize=30;container=1;collapsible=1;childLayout=tableLayout;fixedRows=1;rowLines=0;fontStyle=1;align=center;resizeLast=1;fillStyle=auto;strokeColor=#B20000;strokeWidth=1;fillColor=#e51400;fontColor=#ffffff;sketch=0;" parent="1" vertex="1"><mxGeometry x="390" y="-760" width="110" height="150" as="geometry"/></mxCell><mxCell id="1226" value="" style="shape=tableRow;horizontal=0;startSize=0;swimlaneHead=0;swimlaneBody=0;fillColor=none;collapsible=0;dropTarget=0;points=[[0,0.5],[1,0.5]];portConstraint=eastwest;top=0;left=0;right=0;bottom=1;fillStyle=auto;strokeColor=default;strokeWidth=1;" parent="1225" vertex="1"><mxGeometry y="30" width="110" height="30" as="geometry"/></mxCell><mxCell id="1227" value="PK" style="shape=partialRectangle;connectable=0;fillColor=none;top=0;left=0;bottom=0;right=0;fontStyle=1;overflow=hidden;fillStyle=auto;strokeColor=default;strokeWidth=1;" parent="1226" vertex="1"><mxGeometry width="30" height="30" as="geometry"><mxRectangle width="30" height="30" as="alternateBounds"/></mxGeometry></mxCell><mxCell id="1228" value="id" style="shape=partialRectangle;connectable=0;fillColor=none;top=0;left=0;bottom=0;right=0;align=left;spacingLeft=6;fontStyle=5;overflow=hidden;fillStyle=auto;strokeColor=default;strokeWidth=1;" parent="1226" vertex="1"><mxGeometry x="30" width="80" height="30" as="geometry"><mxRectangle width="80" height="30" as="alternateBounds"/></mxGeometry></mxCell><mxCell id="1229" value="" style="shape=tableRow;horizontal=0;startSize=0;swimlaneHead=0;swimlaneBody=0;fillColor=none;collapsible=0;dropTarget=0;points=[[0,0.5],[1,0.5]];portConstraint=eastwest;top=0;left=0;right=0;bottom=0;fillStyle=auto;strokeColor=default;strokeWidth=1;" parent="1225" vertex="1"><mxGeometry y="60" width="110" height="30" as="geometry"/></mxCell><mxCell id="1230" value="FK" style="shape=partialRectangle;connectable=0;fillColor=none;top=0;left=0;bottom=0;right=0;editable=1;overflow=hidden;fillStyle=auto;strokeColor=default;strokeWidth=1;fontStyle=1" parent="1229" vertex="1"><mxGeometry width="30" height="30" as="geometry"><mxRectangle width="30" height="30" as="alternateBounds"/></mxGeometry></mxCell><mxCell id="1231" value="year_id" style="shape=partialRectangle;connectable=0;fillColor=none;top=0;left=0;bottom=0;right=0;align=left;spacingLeft=6;overflow=hidden;fillStyle=auto;strokeColor=default;strokeWidth=1;fontStyle=1" parent="1229" vertex="1"><mxGeometry x="30" width="80" height="30" as="geometry"><mxRectangle width="80" height="30" as="alternateBounds"/></mxGeometry></mxCell><mxCell id="1232" value="" style="shape=tableRow;horizontal=0;startSize=0;swimlaneHead=0;swimlaneBody=0;fillColor=none;collapsible=0;dropTarget=0;points=[[0,0.5],[1,0.5]];portConstraint=eastwest;top=0;left=0;right=0;bottom=0;fillStyle=auto;strokeColor=default;strokeWidth=1;" parent="1225" vertex="1"><mxGeometry y="90" width="110" height="30" as="geometry"/></mxCell><mxCell id="1233" value="" style="shape=partialRectangle;connectable=0;fillColor=none;top=0;left=0;bottom=0;right=0;editable=1;overflow=hidden;fillStyle=auto;strokeColor=default;strokeWidth=1;" parent="1232" vertex="1"><mxGeometry width="30" height="30" as="geometry"><mxRectangle width="30" height="30" as="alternateBounds"/></mxGeometry></mxCell><mxCell id="1234" value="Row 2" style="shape=partialRectangle;connectable=0;fillColor=none;top=0;left=0;bottom=0;right=0;align=left;spacingLeft=6;overflow=hidden;fillStyle=auto;strokeColor=default;strokeWidth=1;" parent="1232" vertex="1"><mxGeometry x="30" width="80" height="30" as="geometry"><mxRectangle width="80" height="30" as="alternateBounds"/></mxGeometry></mxCell><mxCell id="1235" value="" style="shape=tableRow;horizontal=0;startSize=0;swimlaneHead=0;swimlaneBody=0;fillColor=none;collapsible=0;dropTarget=0;points=[[0,0.5],[1,0.5]];portConstraint=eastwest;top=0;left=0;right=0;bottom=0;fillStyle=auto;strokeColor=default;strokeWidth=1;" parent="1225" vertex="1"><mxGeometry y="120" width="110" height="30" as="geometry"/></mxCell><mxCell id="1236" value="" style="shape=partialRectangle;connectable=0;fillColor=none;top=0;left=0;bottom=0;right=0;editable=1;overflow=hidden;fillStyle=auto;strokeColor=default;strokeWidth=1;" parent="1235" vertex="1"><mxGeometry width="30" height="30" as="geometry"><mxRectangle width="30" height="30" as="alternateBounds"/></mxGeometry></mxCell><mxCell id="1237" value="Row 3" style="shape=partialRectangle;connectable=0;fillColor=none;top=0;left=0;bottom=0;right=0;align=left;spacingLeft=6;overflow=hidden;fillStyle=auto;strokeColor=default;strokeWidth=1;" parent="1235" vertex="1"><mxGeometry x="30" width="80" height="30" as="geometry"><mxRectangle width="80" height="30" as="alternateBounds"/></mxGeometry></mxCell><mxCell id="1238" style="edgeStyle=elbowEdgeStyle;rounded=0;orthogonalLoop=1;jettySize=auto;html=1;entryX=0;entryY=0.5;entryDx=0;entryDy=0;startArrow=none;startFill=0;endArrow=ERmany;endFill=0;" parent="1" source="54" target="1229" edge="1"><mxGeometry relative="1" as="geometry"/></mxCell><mxCell id="1239" style="edgeStyle=elbowEdgeStyle;rounded=0;orthogonalLoop=1;jettySize=auto;html=1;exitX=0.5;exitY=0;exitDx=0;exitDy=0;startArrow=none;startFill=0;endArrow=ERmany;endFill=0;" parent="1" source="305" target="305" edge="1"><mxGeometry relative="1" as="geometry"/></mxCell><mxCell id="1247" value="holidays_saint" style="shape=table;startSize=30;container=1;collapsible=1;childLayout=tableLayout;fixedRows=1;rowLines=0;fontStyle=1;align=center;resizeLast=1;fillColor=#f8cecc;strokeColor=#b85450;swimlaneFillColor=#66FF66;" parent="1" vertex="1"><mxGeometry x="340" y="-310" width="160" height="90" as="geometry"/></mxCell><mxCell id="1248" value="" style="shape=tableRow;horizontal=0;startSize=0;swimlaneHead=0;swimlaneBody=0;fillColor=none;collapsible=0;dropTarget=0;points=[[0,0.5],[1,0.5]];portConstraint=eastwest;top=0;left=0;right=0;bottom=1;" parent="1247" vertex="1"><mxGeometry y="30" width="160" height="30" as="geometry"/></mxCell><mxCell id="1249" value="PK,FK" style="shape=partialRectangle;connectable=0;fillColor=none;top=0;left=0;bottom=0;right=0;fontStyle=1;overflow=hidden;" parent="1248" vertex="1"><mxGeometry width="40" height="30" as="geometry"><mxRectangle width="40" height="30" as="alternateBounds"/></mxGeometry></mxCell><mxCell id="1250" value="holiday_id" style="shape=partialRectangle;connectable=0;fillColor=none;top=0;left=0;bottom=0;right=0;align=left;spacingLeft=6;fontStyle=5;overflow=hidden;" parent="1248" vertex="1"><mxGeometry x="40" width="120" height="30" as="geometry"><mxRectangle width="120" height="30" as="alternateBounds"/></mxGeometry></mxCell><mxCell id="1251" value="" style="shape=tableRow;horizontal=0;startSize=0;swimlaneHead=0;swimlaneBody=0;fillColor=none;collapsible=0;dropTarget=0;points=[[0,0.5],[1,0.5]];portConstraint=eastwest;top=0;left=0;right=0;bottom=0;" parent="1247" vertex="1"><mxGeometry y="60" width="160" height="30" as="geometry"/></mxCell><mxCell id="1252" value="FK" style="shape=partialRectangle;connectable=0;fillColor=none;top=0;left=0;bottom=0;right=0;editable=1;overflow=hidden;fontStyle=1" parent="1251" vertex="1"><mxGeometry width="40" height="30" as="geometry"><mxRectangle width="40" height="30" as="alternateBounds"/></mxGeometry></mxCell><mxCell id="1253" value="saint_id" style="shape=partialRectangle;connectable=0;fillColor=#FFFF66;top=0;left=0;bottom=0;right=0;align=left;spacingLeft=6;overflow=hidden;fontStyle=1" parent="1251" vertex="1"><mxGeometry x="40" width="120" height="30" as="geometry"><mxRectangle width="120" height="30" as="alternateBounds"/></mxGeometry></mxCell><mxCell id="1262" style="edgeStyle=elbowEdgeStyle;rounded=0;orthogonalLoop=1;jettySize=auto;html=1;exitX=1;exitY=0.5;exitDx=0;exitDy=0;entryX=0;entryY=0.5;entryDx=0;entryDy=0;startArrow=none;startFill=0;endArrow=ERmany;endFill=0;" parent="1" source="3" target="1251" edge="1"><mxGeometry relative="1" as="geometry"><Array as="points"><mxPoint x="300" y="-10"/></Array></mxGeometry></mxCell><mxCell id="1306" style="edgeStyle=elbowEdgeStyle;rounded=0;orthogonalLoop=1;jettySize=auto;html=1;exitX=1;exitY=0.5;exitDx=0;exitDy=0;entryX=0;entryY=0.5;entryDx=0;entryDy=0;startArrow=none;startFill=0;endArrow=none;endFill=0;" parent="1" source="1248" target="292" edge="1"><mxGeometry relative="1" as="geometry"/></mxCell><mxCell id="1307" value="holidays_saints" style="shape=table;startSize=30;container=1;collapsible=1;childLayout=tableLayout;fixedRows=1;rowLines=0;fontStyle=1;align=center;resizeLast=1;fillColor=#f8cecc;strokeColor=#b85450;swimlaneFillColor=#66FF66;" parent="1" vertex="1"><mxGeometry x="780" y="-310" width="140" height="60" as="geometry"/></mxCell><mxCell id="1308" value="" style="shape=tableRow;horizontal=0;startSize=0;swimlaneHead=0;swimlaneBody=0;fillColor=none;collapsible=0;dropTarget=0;points=[[0,0.5],[1,0.5]];portConstraint=eastwest;top=0;left=0;right=0;bottom=1;" parent="1307" vertex="1"><mxGeometry y="30" width="140" height="30" as="geometry"/></mxCell><mxCell id="1309" value="PK,FK" style="shape=partialRectangle;connectable=0;fillColor=none;top=0;left=0;bottom=0;right=0;fontStyle=1;overflow=hidden;" parent="1308" vertex="1"><mxGeometry width="40" height="30" as="geometry"><mxRectangle width="40" height="30" as="alternateBounds"/></mxGeometry></mxCell><mxCell id="1310" value="holiday_id" style="shape=partialRectangle;connectable=0;fillColor=none;top=0;left=0;bottom=0;right=0;align=left;spacingLeft=6;fontStyle=5;overflow=hidden;" parent="1308" vertex="1"><mxGeometry x="40" width="100" height="30" as="geometry"><mxRectangle width="100" height="30" as="alternateBounds"/></mxGeometry></mxCell><mxCell id="1314" style="edgeStyle=elbowEdgeStyle;rounded=0;orthogonalLoop=1;jettySize=auto;html=1;exitX=1;exitY=0.5;exitDx=0;exitDy=0;entryX=0;entryY=0.5;entryDx=0;entryDy=0;startArrow=none;startFill=0;endArrow=none;endFill=0;" parent="1" source="292" target="1308" edge="1"><mxGeometry relative="1" as="geometry"/></mxCell><mxCell id="1344" style="edgeStyle=elbowEdgeStyle;rounded=0;orthogonalLoop=1;jettySize=auto;html=1;exitX=1;exitY=0.5;exitDx=0;exitDy=0;entryX=0;entryY=0.5;entryDx=0;entryDy=0;startArrow=none;startFill=0;endArrow=ERmany;endFill=0;" parent="1" source="457" target="1308" edge="1"><mxGeometry relative="1" as="geometry"/></mxCell><mxCell id="1347" value="saints_data" style="shape=table;startSize=30;container=1;collapsible=1;childLayout=tableLayout;fixedRows=1;rowLines=0;fontStyle=1;align=center;resizeLast=1;fillColor=#f8cecc;strokeColor=#b85450;swimlaneFillColor=#FFFF66;" parent="1" vertex="1"><mxGeometry x="150" y="-200" width="120" height="90" as="geometry"/></mxCell><mxCell id="1394" style="edgeStyle=elbowEdgeStyle;rounded=0;orthogonalLoop=1;jettySize=auto;html=1;exitX=0;exitY=0.5;exitDx=0;exitDy=0;entryX=0;entryY=0.5;entryDx=0;entryDy=0;startArrow=none;startFill=0;endArrow=none;endFill=0;" parent="1347" source="1348" target="1374" edge="1"><mxGeometry relative="1" as="geometry"><Array as="points"><mxPoint x="-40" y="60"/></Array></mxGeometry></mxCell><mxCell id="1348" value="" style="shape=tableRow;horizontal=0;startSize=0;swimlaneHead=0;swimlaneBody=0;fillColor=none;collapsible=0;dropTarget=0;points=[[0,0.5],[1,0.5]];portConstraint=eastwest;top=0;left=0;right=0;bottom=1;" parent="1347" vertex="1"><mxGeometry y="30" width="120" height="30" as="geometry"/></mxCell><mxCell id="1349" value="PK,FK" style="shape=partialRectangle;connectable=0;fillColor=none;top=0;left=0;bottom=0;right=0;fontStyle=1;overflow=hidden;" parent="1348" vertex="1"><mxGeometry width="40" height="30" as="geometry"><mxRectangle width="40" height="30" as="alternateBounds"/></mxGeometry></mxCell><mxCell id="1350" value="saint_id" style="shape=partialRectangle;connectable=0;fillColor=none;top=0;left=0;bottom=0;right=0;align=left;spacingLeft=6;fontStyle=5;overflow=hidden;" parent="1348" vertex="1"><mxGeometry x="40" width="80" height="30" as="geometry"><mxRectangle width="80" height="30" as="alternateBounds"/></mxGeometry></mxCell><mxCell id="1374" value="" style="shape=tableRow;horizontal=0;startSize=0;swimlaneHead=0;swimlaneBody=0;fillColor=none;collapsible=0;dropTarget=0;points=[[0,0.5],[1,0.5]];portConstraint=eastwest;top=0;left=0;right=0;bottom=1;" parent="1347" vertex="1"><mxGeometry y="60" width="120" height="30" as="geometry"/></mxCell><mxCell id="1375" value="FK" style="shape=partialRectangle;connectable=0;fillColor=none;top=0;left=0;bottom=0;right=0;fontStyle=1;overflow=hidden;" parent="1374" vertex="1"><mxGeometry width="40" height="30" as="geometry"><mxRectangle width="40" height="30" as="alternateBounds"/></mxGeometry></mxCell><mxCell id="1376" value="teacher_id" style="shape=partialRectangle;connectable=0;fillColor=none;top=0;left=0;bottom=0;right=0;align=left;spacingLeft=6;fontStyle=5;overflow=hidden;" parent="1374" vertex="1"><mxGeometry x="40" width="80" height="30" as="geometry"><mxRectangle width="80" height="30" as="alternateBounds"/></mxGeometry></mxCell><mxCell id="1373" style="edgeStyle=elbowEdgeStyle;rounded=0;orthogonalLoop=1;jettySize=auto;html=1;exitX=1;exitY=0.5;exitDx=0;exitDy=0;entryX=0;entryY=0.5;entryDx=0;entryDy=0;startArrow=none;startFill=0;endArrow=none;endFill=0;" parent="1" source="3" target="1348" edge="1"><mxGeometry relative="1" as="geometry"/></mxCell><mxCell id="1395" value="saints_groups" style="shape=table;startSize=30;container=1;collapsible=1;childLayout=tableLayout;fixedRows=1;rowLines=0;fontStyle=1;align=center;resizeLast=1;fillColor=#f8cecc;strokeColor=default;rounded=0;shadow=0;strokeWidth=1;swimlaneFillColor=#FFFF66;" parent="1" vertex="1"><mxGeometry x="-234" y="-150" width="120" height="60" as="geometry"/></mxCell><mxCell id="1397" value="" style="shape=tableRow;horizontal=0;startSize=0;swimlaneHead=0;swimlaneBody=0;fillColor=none;collapsible=0;dropTarget=0;points=[[0,0.5],[1,0.5]];portConstraint=eastwest;top=0;left=0;right=0;bottom=1;" parent="1395" vertex="1"><mxGeometry y="30" width="120" height="30" as="geometry"/></mxCell><mxCell id="1398" value="PK,FK" style="shape=partialRectangle;connectable=0;fillColor=none;top=0;left=0;bottom=0;right=0;fontStyle=1;overflow=hidden;" parent="1397" vertex="1"><mxGeometry width="40" height="30" as="geometry"><mxRectangle width="40" height="30" as="alternateBounds"/></mxGeometry></mxCell><mxCell id="1399" value="saint_id" style="shape=partialRectangle;connectable=0;fillColor=none;top=0;left=0;bottom=0;right=0;align=left;spacingLeft=6;fontStyle=5;overflow=hidden;" parent="1397" vertex="1"><mxGeometry x="40" width="80" height="30" as="geometry"><mxRectangle width="80" height="30" as="alternateBounds"/></mxGeometry></mxCell><mxCell id="1404" style="edgeStyle=elbowEdgeStyle;rounded=0;orthogonalLoop=1;jettySize=auto;html=1;exitX=1;exitY=0.5;exitDx=0;exitDy=0;startArrow=none;startFill=0;endArrow=none;endFill=0;" parent="1" source="1397" target="3" edge="1"><mxGeometry relative="1" as="geometry"/></mxCell><mxCell id="1427" value="saints_cathedrals" style="shape=table;startSize=30;container=1;collapsible=1;childLayout=tableLayout;fixedRows=1;rowLines=0;fontStyle=1;align=center;resizeLast=1;fillColor=#ffe6cc;strokeColor=#d79b00;" parent="1" vertex="1"><mxGeometry x="-30" y="250" width="150" height="90" as="geometry"/></mxCell><mxCell id="1428" value="" style="shape=tableRow;horizontal=0;startSize=0;swimlaneHead=0;swimlaneBody=0;fillColor=#FFFF66;collapsible=0;dropTarget=0;points=[[0,0.5],[1,0.5]];portConstraint=eastwest;top=0;left=0;right=0;bottom=0;" parent="1427" vertex="1"><mxGeometry y="30" width="150" height="30" as="geometry"/></mxCell><mxCell id="1429" value="PK,FK1" style="shape=partialRectangle;connectable=0;fillColor=none;top=0;left=0;bottom=0;right=0;fontStyle=1;overflow=hidden;" parent="1428" vertex="1"><mxGeometry width="60" height="30" as="geometry"><mxRectangle width="60" height="30" as="alternateBounds"/></mxGeometry></mxCell><mxCell id="1430" value="saint_id" style="shape=partialRectangle;connectable=0;fillColor=none;top=0;left=0;bottom=0;right=0;align=left;spacingLeft=6;fontStyle=5;overflow=hidden;" parent="1428" vertex="1"><mxGeometry x="60" width="90" height="30" as="geometry"><mxRectangle width="90" height="30" as="alternateBounds"/></mxGeometry></mxCell><mxCell id="1431" value="" style="shape=tableRow;horizontal=0;startSize=0;swimlaneHead=0;swimlaneBody=0;fillColor=#6CA9EF;collapsible=0;dropTarget=0;points=[[0,0.5],[1,0.5]];portConstraint=eastwest;top=0;left=0;right=0;bottom=1;swimlaneFillColor=default;" parent="1427" vertex="1"><mxGeometry y="60" width="150" height="30" as="geometry"/></mxCell><mxCell id="1432" value="PK,FK2" style="shape=partialRectangle;connectable=0;fillColor=none;top=0;left=0;bottom=0;right=0;fontStyle=1;overflow=hidden;" parent="1431" vertex="1"><mxGeometry width="60" height="30" as="geometry"><mxRectangle width="60" height="30" as="alternateBounds"/></mxGeometry></mxCell><mxCell id="1433" value="book_id" style="shape=partialRectangle;connectable=0;fillColor=none;top=0;left=0;bottom=0;right=0;align=left;spacingLeft=6;fontStyle=5;overflow=hidden;" parent="1431" vertex="1"><mxGeometry x="60" width="90" height="30" as="geometry"><mxRectangle width="90" height="30" as="alternateBounds"/></mxGeometry></mxCell><mxCell id="1437" value="cathedrals_rules" style="shape=table;startSize=30;container=1;collapsible=1;childLayout=tableLayout;fixedRows=1;rowLines=0;fontStyle=1;align=center;resizeLast=1;fillColor=#f8cecc;strokeColor=#b85450;swimlaneFillColor=#6CA9EF;" parent="1" vertex="1"><mxGeometry x="-180" y="640" width="120" height="90" as="geometry"/></mxCell><mxCell id="1438" value="" style="shape=tableRow;horizontal=0;startSize=0;swimlaneHead=0;swimlaneBody=0;fillColor=none;collapsible=0;dropTarget=0;points=[[0,0.5],[1,0.5]];portConstraint=eastwest;top=0;left=0;right=0;bottom=1;" parent="1437" vertex="1"><mxGeometry y="30" width="120" height="30" as="geometry"/></mxCell><mxCell id="1439" value="PK,FK" style="shape=partialRectangle;connectable=0;fillColor=none;top=0;left=0;bottom=0;right=0;fontStyle=1;overflow=hidden;" parent="1438" vertex="1"><mxGeometry width="40" height="30" as="geometry"><mxRectangle width="40" height="30" as="alternateBounds"/></mxGeometry></mxCell><mxCell id="1440" value="book_id" style="shape=partialRectangle;connectable=0;fillColor=none;top=0;left=0;bottom=0;right=0;align=left;spacingLeft=6;fontStyle=5;overflow=hidden;" parent="1438" vertex="1"><mxGeometry x="40" width="80" height="30" as="geometry"><mxRectangle width="80" height="30" as="alternateBounds"/></mxGeometry></mxCell><mxCell id="1444" value="" style="shape=tableRow;horizontal=0;startSize=0;swimlaneHead=0;swimlaneBody=0;fillColor=none;collapsible=0;dropTarget=0;points=[[0,0.5],[1,0.5]];portConstraint=eastwest;top=0;left=0;right=0;bottom=0;" parent="1437" vertex="1"><mxGeometry y="60" width="120" height="30" as="geometry"/></mxCell><mxCell id="1445" value="" style="shape=partialRectangle;connectable=0;fillColor=none;top=0;left=0;bottom=0;right=0;editable=1;overflow=hidden;fontStyle=1" parent="1444" vertex="1"><mxGeometry width="40" height="30" as="geometry"><mxRectangle width="40" height="30" as="alternateBounds"/></mxGeometry></mxCell><mxCell id="1446" value="num" style="shape=partialRectangle;connectable=0;fillColor=none;top=0;left=0;bottom=0;right=0;align=left;spacingLeft=6;overflow=hidden;fontStyle=1" parent="1444" vertex="1"><mxGeometry x="40" width="80" height="30" as="geometry"><mxRectangle width="80" height="30" as="alternateBounds"/></mxGeometry></mxCell><mxCell id="1448" style="edgeStyle=orthogonalEdgeStyle;rounded=0;orthogonalLoop=1;jettySize=auto;html=1;exitX=1;exitY=0.5;exitDx=0;exitDy=0;entryX=1;entryY=0.5;entryDx=0;entryDy=0;endArrow=none;endFill=0;" parent="1" source="3" target="1428" edge="1"><mxGeometry relative="1" as="geometry"/></mxCell><mxCell id="1461" style="edgeStyle=orthogonalEdgeStyle;rounded=0;orthogonalLoop=1;jettySize=auto;html=1;exitX=0;exitY=0.5;exitDx=0;exitDy=0;entryX=1;entryY=0.5;entryDx=0;entryDy=0;endArrow=none;endFill=0;" parent="1" source="175" target="271" edge="1"><mxGeometry relative="1" as="geometry"/></mxCell><mxCell id="1464" style="edgeStyle=orthogonalEdgeStyle;rounded=0;orthogonalLoop=1;jettySize=auto;html=1;exitX=0.5;exitY=0;exitDx=0;exitDy=0;entryX=0.375;entryY=-0.003;entryDx=0;entryDy=0;entryPerimeter=0;endArrow=none;endFill=0;" parent="1" source="2" target="2" edge="1"><mxGeometry relative="1" as="geometry"/></mxCell><mxCell id="1492" style="edgeStyle=orthogonalEdgeStyle;rounded=0;orthogonalLoop=1;jettySize=auto;html=1;exitX=1;exitY=0.5;exitDx=0;exitDy=0;entryX=0;entryY=0.5;entryDx=0;entryDy=0;fontColor=#66CC00;endArrow=none;endFill=0;" parent="1" source="1438" target="1096" edge="1"><mxGeometry relative="1" as="geometry"/></mxCell><mxCell id="1095" value="cathedrals" style="shape=table;startSize=30;container=1;collapsible=1;childLayout=tableLayout;fixedRows=1;rowLines=0;fontStyle=1;align=center;resizeLast=1;fillColor=#f8cecc;strokeColor=#b85450;gradientColor=#ea6b66;swimlaneFillColor=#6CA9EF;" parent="1" vertex="1"><mxGeometry x="-20" y="500" width="140" height="120" as="geometry"/></mxCell><mxCell id="1096" value="" style="shape=tableRow;horizontal=0;startSize=0;swimlaneHead=0;swimlaneBody=0;fillColor=none;collapsible=0;dropTarget=0;points=[[0,0.5],[1,0.5]];portConstraint=eastwest;top=0;left=0;right=0;bottom=1;" parent="1095" vertex="1"><mxGeometry y="30" width="140" height="30" as="geometry"/></mxCell><mxCell id="1097" value="PK,FK" style="shape=partialRectangle;connectable=0;fillColor=none;top=0;left=0;bottom=0;right=0;fontStyle=1;overflow=hidden;" parent="1096" vertex="1"><mxGeometry width="40" height="30" as="geometry"><mxRectangle width="40" height="30" as="alternateBounds"/></mxGeometry></mxCell><mxCell id="1098" value="book_id" style="shape=partialRectangle;connectable=0;fillColor=none;top=0;left=0;bottom=0;right=0;align=left;spacingLeft=6;fontStyle=5;overflow=hidden;" parent="1096" vertex="1"><mxGeometry x="40" width="100" height="30" as="geometry"><mxRectangle width="100" height="30" as="alternateBounds"/></mxGeometry></mxCell><mxCell id="1405" value="" style="shape=tableRow;horizontal=0;startSize=0;swimlaneHead=0;swimlaneBody=0;fillColor=none;collapsible=0;dropTarget=0;points=[[0,0.5],[1,0.5]];portConstraint=eastwest;top=0;left=0;right=0;bottom=0;" parent="1095" vertex="1"><mxGeometry y="60" width="140" height="30" as="geometry"/></mxCell><mxCell id="1406" value="" style="shape=partialRectangle;connectable=0;fillColor=none;top=0;left=0;bottom=0;right=0;editable=1;overflow=hidden;fontStyle=1" parent="1405" vertex="1"><mxGeometry width="40" height="30" as="geometry"><mxRectangle width="40" height="30" as="alternateBounds"/></mxGeometry></mxCell><mxCell id="1407" value="cathedral_type" style="shape=partialRectangle;connectable=0;fillColor=none;top=0;left=0;bottom=0;right=0;align=left;spacingLeft=6;overflow=hidden;fontStyle=0" parent="1405" vertex="1"><mxGeometry x="40" width="100" height="30" as="geometry"><mxRectangle width="100" height="30" as="alternateBounds"/></mxGeometry></mxCell><mxCell id="1411" value="" style="shape=tableRow;horizontal=0;startSize=0;swimlaneHead=0;swimlaneBody=0;fillColor=none;collapsible=0;dropTarget=0;points=[[0,0.5],[1,0.5]];portConstraint=eastwest;top=0;left=0;right=0;bottom=0;" parent="1095" vertex="1"><mxGeometry y="90" width="140" height="30" as="geometry"/></mxCell><mxCell id="1412" value="" style="shape=partialRectangle;connectable=0;fillColor=none;top=0;left=0;bottom=0;right=0;editable=1;overflow=hidden;fontStyle=1" parent="1411" vertex="1"><mxGeometry width="40" height="30" as="geometry"><mxRectangle width="40" height="30" as="alternateBounds"/></mxGeometry></mxCell><mxCell id="1413" value="num_rules" style="shape=partialRectangle;connectable=0;fillColor=none;top=0;left=0;bottom=0;right=0;align=left;spacingLeft=6;overflow=hidden;fontStyle=0" parent="1411" vertex="1"><mxGeometry x="40" width="100" height="30" as="geometry"><mxRectangle width="100" height="30" as="alternateBounds"/></mxGeometry></mxCell><mxCell id="1530" style="edgeStyle=orthogonalEdgeStyle;rounded=0;orthogonalLoop=1;jettySize=auto;html=1;exitX=1;exitY=0.5;exitDx=0;exitDy=0;entryX=0;entryY=0.5;entryDx=0;entryDy=0;fontColor=#66CC00;endArrow=none;endFill=0;" parent="1" source="1348" target="460" edge="1"><mxGeometry relative="1" as="geometry"/></mxCell><mxCell id="1542" style="edgeStyle=orthogonalEdgeStyle;rounded=0;orthogonalLoop=1;jettySize=auto;html=1;exitX=1;exitY=0.5;exitDx=0;exitDy=0;entryX=1;entryY=0.5;entryDx=0;entryDy=0;fontColor=#66CC00;endArrow=none;endFill=0;" parent="1" source="1096" target="1431" edge="1"><mxGeometry relative="1" as="geometry"/></mxCell><mxCell id="1543" style="edgeStyle=orthogonalEdgeStyle;rounded=0;orthogonalLoop=1;jettySize=auto;html=1;exitX=1;exitY=0.5;exitDx=0;exitDy=0;entryX=0;entryY=0.5;entryDx=0;entryDy=0;fontColor=#66CC00;endArrow=none;endFill=0;" parent="1" source="306" target="1096" edge="1"><mxGeometry relative="1" as="geometry"/></mxCell><mxCell id="1544" style="edgeStyle=orthogonalEdgeStyle;rounded=0;orthogonalLoop=1;jettySize=auto;html=1;exitX=0;exitY=0.5;exitDx=0;exitDy=0;entryX=1;entryY=0.5;entryDx=0;entryDy=0;fontColor=#66CC00;endArrow=none;endFill=0;" parent="1" source="218" target="306" edge="1"><mxGeometry relative="1" as="geometry"/></mxCell></root></mxGraphModel></diagram></mxfile>